<?xml version="1.0" standalone="no"?>
<!DOCTYPE svg PUBLIC "-//W3C//DTD SVG 20010904//EN"
 "http://www.w3.org/TR/2001/REC-SVG-20010904/DTD/svg10.dtd">
<svg version="1.0" xmlns="http://www.w3.org/2000/svg"
 width="700.000000pt" height="700.000000pt" viewBox="0 0 700.000000 700.000000"
 preserveAspectRatio="xMidYMid meet">
<metadata>
Created by potrace 1.14, written by Peter Selinger 2001-2017
</metadata>
<g transform="translate(0.000000,700.000000) scale(0.100000,-0.100000)"
fill="#000000" stroke="none">
<path d="M3477 6155 c-1 -1 -63 -5 -137 -8 -74 -4 -144 -8 -155 -11 -11 -2
-45 -7 -75 -11 -81 -10 -269 -52 -383 -86 -280 -84 -594 -243 -822 -418 -502
-385 -831 -885 -984 -1496 -23 -93 -47 -227 -56 -311 -3 -32 -8 -70 -11 -84
-6 -35 -6 -407 0 -450 3 -19 8 -62 11 -95 23 -234 108 -538 220 -785 147 -326
394 -658 671 -902 181 -159 439 -323 674 -427 221 -98 528 -182 755 -206 33
-4 78 -9 100 -11 58 -7 381 -6 440 1 28 3 70 8 95 11 673 82 1283 415 1716
934 332 398 546 894 599 1390 4 36 9 76 11 90 2 14 4 111 4 216 1 167 -3 230
-25 394 -26 188 -96 444 -164 605 -10 22 -26 60 -36 85 -67 158 -201 381 -330
548 -225 291 -525 543 -856 719 -269 144 -563 237 -909 287 -49 7 -348 25
-353 21z m283 -240 c369 -41 731 -168 1038 -362 208 -132 468 -366 612 -553
293 -381 456 -787 510 -1275 8 -78 6 -436 -3 -485 -3 -14 -8 -47 -11 -75 -32
-259 -139 -582 -276 -828 -118 -213 -233 -367 -397 -534 -120 -121 -152 -149
-278 -245 -336 -254 -737 -415 -1175 -472 -154 -20 -480 -14 -645 13 -512 81
-970 311 -1336 671 -379 373 -611 825 -704 1375 -31 182 -25 580 10 765 43
223 85 365 164 549 223 517 627 948 1127 1202 430 218 899 305 1364 254z"/>
<path d="M3355 5703 c-226 -23 -385 -54 -553 -110 -628 -208 -1129 -690 -1369
-1317 -30 -80 -85 -271 -97 -336 -6 -38 -15 -92 -21 -125 -19 -114 -25 -374
-13 -518 29 -316 130 -632 290 -905 332 -568 889 -954 1536 -1067 138 -24 226
-30 397 -29 1001 8 1870 693 2115 1668 15 61 31 131 34 156 3 25 8 54 10 65
11 57 18 154 20 275 18 892 -496 1695 -1319 2062 -188 84 -439 151 -650 174
-66 7 -332 12 -380 7z m510 -218 c836 -156 1489 -819 1625 -1650 107 -649 -98
-1293 -560 -1756 -305 -306 -665 -494 -1090 -569 -153 -27 -446 -35 -585 -15
-368 52 -673 175 -966 390 -99 72 -294 262 -373 362 -235 301 -379 655 -425
1048 -9 77 -7 404 3 455 3 14 10 54 16 90 41 248 151 534 285 740 123 192 318
405 479 524 104 78 261 173 369 225 178 84 451 161 632 177 39 4 72 8 75 11 2
2 88 2 190 -1 142 -3 217 -10 325 -31z"/>
<path d="M3447 5275 c-64 -22 -100 -59 -117 -122 -11 -37 -16 -42 -55 -52 -72
-18 -135 -98 -135 -171 0 -41 25 -99 58 -133 l27 -28 1 -320 1 -319 -331 0
c-313 0 -332 1 -343 19 -16 26 -93 61 -134 61 -79 -1 -164 -69 -176 -143 -5
-30 -10 -35 -40 -40 -82 -14 -150 -108 -140 -194 9 -86 80 -153 170 -162 4 -1
7 -10 7 -21 0 -26 32 -90 57 -112 24 -22 86 -48 115 -48 45 0 95 20 131 54
l37 33 323 0 324 0 0 -716 1 -716 -29 -30 c-34 -37 -59 -94 -59 -137 0 -76 68
-157 148 -173 24 -5 32 -12 32 -28 1 -65 83 -141 162 -150 80 -9 170 52 189
129 9 36 15 41 53 52 75 20 136 100 136 180 0 34 -28 93 -59 127 l-29 30 1
716 0 716 328 1 328 0 23 -25 c34 -37 75 -55 127 -56 82 -1 152 52 173 130 11
37 16 43 53 52 74 19 135 101 135 181 -1 71 -72 155 -140 166 -34 6 -38 10
-43 41 -23 139 -210 193 -306 89 l-24 -26 -327 0 -327 0 0 318 0 317 28 30
c34 37 59 94 59 137 0 75 -68 157 -146 172 -25 6 -32 14 -41 49 -15 54 -43 90
-86 110 -48 23 -96 27 -140 12z"/>
</g>
</svg>
