<?xml version="1.0" encoding="utf-8"?>
<svg x="0pt" y="0pt" width="1000pt" height="1000pt" viewBox="0 0 1000 1000" xmlns="http://www.w3.org/2000/svg" xmlns:xlink="http://www.w3.org/1999/xlink">
  <g id="1">
    <title>Layer 1</title>
    <g id="2">
      <title>Group</title>
      <g id="3">
        <title>Group</title>
        <defs>
          <title>Shape 120</title>
          <g id="4">
            <defs>
              <path id="5" d="M500,121.149 C290.721,121.149,121.149,290.721,121.149,500 C121.149,709.279,290.721,878.851,500,878.851 C709.279,878.851,878.851,709.279,878.851,500 C878.851,290.721,709.279,121.149,500,121.149 z M500,847.341 C308.571,847.341,152.659,691.611,152.659,500 C152.659,308.571,308.389,152.659,500,152.659 C691.429,152.659,847.341,308.389,847.341,500 C847.341,691.429,691.429,847.341,500,847.341 z"/>
            </defs>
            <use xlink:href="#5" style="fill:#000000;fill-opacity:1;fill-rule:nonzero;opacity:1;stroke:none;"/>
          </g>
        </defs>
        <use xlink:href="#4"/>
        <defs>
          <title>Group</title>
          <g id="6">
            <defs>
              <path id="7" d="M500,121.149 C290.721,121.149,121.149,290.721,121.149,500 C121.149,709.279,290.721,878.851,500,878.851 C709.279,878.851,878.851,709.279,878.851,500 C878.851,290.721,709.279,121.149,500,121.149 z M500,847.341 C308.571,847.341,152.659,691.611,152.659,500 C152.659,308.571,308.389,152.659,500,152.659 C691.429,152.659,847.341,308.389,847.341,500 C847.341,691.429,691.429,847.341,500,847.341 z"/>
            </defs>
            <use xlink:href="#7" style="fill:#ffffff;fill-opacity:1;fill-rule:nonzero;opacity:1;stroke:none;"/>
          </g>
        </defs>
        <use xlink:href="#6"/>
      </g>
      <g id="8">
        <title>Group</title>
        <defs>
          <title>Shape 121</title>
          <g id="9">
            <defs>
              <path id="10" d="M499.99,184.932 C325.951,184.932,184.932,325.951,184.932,499.99 C184.932,674.029,325.951,815.047,499.99,815.047 C674.029,815.047,815.047,674.029,815.047,499.99 C815.047,325.951,674.029,184.932,499.99,184.932 z M499.99,788.843 C340.795,788.843,211.137,659.336,211.137,499.99 C211.137,340.795,340.643,211.137,499.99,211.137 C659.185,211.137,788.843,340.643,788.843,499.99 C788.843,659.185,659.185,788.843,499.99,788.843 z"/>
            </defs>
            <use xlink:href="#10" style="fill:#000000;fill-opacity:1;fill-rule:nonzero;opacity:1;stroke:none;"/>
          </g>
        </defs>
        <use xlink:href="#9"/>
        <defs>
          <title>Group</title>
          <g id="11">
            <defs>
              <path id="12" d="M499.99,184.932 C325.951,184.932,184.932,325.951,184.932,499.99 C184.932,674.029,325.951,815.047,499.99,815.047 C674.029,815.047,815.047,674.029,815.047,499.99 C815.047,325.951,674.029,184.932,499.99,184.932 z M499.99,788.843 C340.795,788.843,211.137,659.336,211.137,499.99 C211.137,340.795,340.643,211.137,499.99,211.137 C659.185,211.137,788.843,340.643,788.843,499.99 C788.843,659.185,659.185,788.843,499.99,788.843 z"/>
            </defs>
            <use xlink:href="#12" style="fill:#ffffff;fill-opacity:1;fill-rule:nonzero;opacity:1;stroke:none;"/>
          </g>
        </defs>
        <use xlink:href="#11"/>
      </g>
      <g id="13">
        <title>Group</title>
        <defs>
          <title>Shape 122</title>
          <g id="14">
            <defs>
              <path id="15" d="M680.032,424.086 C680.032,424.008,680.035,423.93,680.035,423.851 C680.035,409.752,668.605,398.322,654.505,398.322 C645.273,398.322,637.185,403.223,632.701,410.566 C632.701,410.566,538.799,410.566,538.799,410.566 C538.799,410.566,538.799,317.787,538.799,317.787 C538.804,317.787,538.81,317.787,538.815,317.787 C546.157,313.303,551.059,305.216,551.059,295.983 C551.059,281.96,539.752,270.58,525.759,270.457 C525.636,256.463,514.255,245.157,500.232,245.157 C486.209,245.157,474.829,256.463,474.706,270.457 C474.628,270.456,474.55,270.454,474.471,270.454 C460.372,270.454,448.942,281.884,448.942,295.983 C448.942,305.216,453.843,313.303,461.186,317.787 C461.191,317.787,461.197,317.787,461.202,317.787 C461.202,348.713,461.202,379.639,461.202,410.566 C461.202,410.566,367.299,410.566,367.299,410.566 C367.299,410.742,367.299,410.919,367.299,411.095 C362.815,403.753,354.728,398.851,345.495,398.851 C331.472,398.851,320.092,410.158,319.968,424.151 C305.975,424.275,294.668,435.655,294.668,449.678 C294.668,463.7,305.975,475.081,319.968,475.204 C319.968,475.282,319.966,475.36,319.966,475.439 C319.966,489.538,331.395,500.968,345.495,500.968 C354.728,500.968,362.815,496.066,367.299,488.724 C367.299,488.724,461.202,488.724,461.202,488.724 C461.202,557.512,461.202,626.299,461.202,695.086 C453.859,699.57,448.958,707.657,448.958,716.89 C448.958,730.913,460.264,742.293,474.258,742.417 C474.381,756.41,485.761,767.717,499.784,767.717 C513.807,767.717,525.188,756.41,525.311,742.417 C525.389,742.417,525.467,742.42,525.546,742.42 C539.645,742.42,551.075,730.99,551.075,716.89 C551.075,707.658,546.173,699.57,538.831,695.086 C538.82,695.086,538.809,695.086,538.798,695.086 C538.798,626.299,538.798,557.512,538.798,488.724 C570.099,488.724,601.4,488.724,632.701,488.724 C632.701,488.548,632.701,488.371,632.701,488.195 C637.185,495.537,645.272,500.439,654.505,500.439 C668.528,500.439,679.908,489.132,680.032,475.139 C694.025,475.015,705.332,463.635,705.332,449.612 C705.332,435.589,694.025,424.209,680.032,424.086 z"/>
            </defs>
            <use xlink:href="#15" style="fill:#000000;fill-opacity:1;fill-rule:nonzero;opacity:1;stroke:none;"/>
          </g>
        </defs>
        <use xlink:href="#14"/>
        <defs>
          <title>Group</title>
          <g id="16">
            <defs>
              <path id="17" d="M680.032,424.086 C680.032,424.008,680.035,423.93,680.035,423.851 C680.035,409.752,668.605,398.322,654.505,398.322 C645.273,398.322,637.185,403.223,632.701,410.566 C632.701,410.566,538.799,410.566,538.799,410.566 C538.799,410.566,538.799,317.787,538.799,317.787 C538.804,317.787,538.81,317.787,538.815,317.787 C546.157,313.303,551.059,305.216,551.059,295.983 C551.059,281.96,539.752,270.58,525.759,270.457 C525.636,256.463,514.255,245.157,500.232,245.157 C486.209,245.157,474.829,256.463,474.706,270.457 C474.628,270.456,474.55,270.454,474.471,270.454 C460.372,270.454,448.942,281.884,448.942,295.983 C448.942,305.216,453.843,313.303,461.186,317.787 C461.191,317.787,461.197,317.787,461.202,317.787 C461.202,348.713,461.202,379.639,461.202,410.566 C461.202,410.566,367.299,410.566,367.299,410.566 C367.299,410.742,367.299,410.919,367.299,411.095 C362.815,403.753,354.728,398.851,345.495,398.851 C331.472,398.851,320.092,410.158,319.968,424.151 C305.975,424.275,294.668,435.655,294.668,449.678 C294.668,463.7,305.975,475.081,319.968,475.204 C319.968,475.282,319.966,475.36,319.966,475.439 C319.966,489.538,331.395,500.968,345.495,500.968 C354.728,500.968,362.815,496.066,367.299,488.724 C367.299,488.724,461.202,488.724,461.202,488.724 C461.202,557.512,461.202,626.299,461.202,695.086 C453.859,699.57,448.958,707.657,448.958,716.89 C448.958,730.913,460.264,742.293,474.258,742.417 C474.381,756.41,485.761,767.717,499.784,767.717 C513.807,767.717,525.188,756.41,525.311,742.417 C525.389,742.417,525.467,742.42,525.546,742.42 C539.645,742.42,551.075,730.99,551.075,716.89 C551.075,707.658,546.173,699.57,538.831,695.086 C538.82,695.086,538.809,695.086,538.798,695.086 C538.798,626.299,538.798,557.512,538.798,488.724 C570.099,488.724,601.4,488.724,632.701,488.724 C632.701,488.548,632.701,488.371,632.701,488.195 C637.185,495.537,645.272,500.439,654.505,500.439 C668.528,500.439,679.908,489.132,680.032,475.139 C694.025,475.015,705.332,463.635,705.332,449.612 C705.332,435.589,694.025,424.209,680.032,424.086 z"/>
            </defs>
            <use xlink:href="#17" style="fill:#ffffff;fill-opacity:1;fill-rule:nonzero;opacity:1;stroke:none;"/>
          </g>
        </defs>
        <use xlink:href="#16"/>
      </g>
    </g>
  </g>
</svg>
