<?xml version="1.0" encoding="utf-8"?>
<svg x="0pt" y="0pt" width="257pt" height="158pt" viewBox="0 0 257 158" xmlns="http://www.w3.org/2000/svg" xmlns:xlink="http://www.w3.org/1999/xlink">
  <g id="1">
    <title>Group</title>
    <clipPath id="3">
      <use xlink:href="#2"/>
      <path id="2" d="M0,0 C0,0,257,0,257,0 C257,0,257,158,257,158 C257,158,0,158,0,158 C0,158,0,0,0,0 z"/>
    </clipPath>
    <g id="4" style="clip-path:url(#3);">
      <title>Clipping Group</title>
      <g id="5">
        <title>Group</title>
        <clipPath id="7">
          <use xlink:href="#6"/>
          <path id="6" d="M96.2169,30.2843 C96.2169,30.2843,161.736,30.2843,161.736,30.2843 C161.736,30.2843,161.736,94.8043,161.736,94.8043 C161.736,94.8043,96.2169,94.8043,96.2169,94.8043 C96.2169,94.8043,96.2169,30.2843,96.2169,30.2843 z"/>
        </clipPath>
        <g id="8" style="clip-path:url(#7);">
          <title>Clipping Group</title>
          <g id="9">
            <title>Group</title>
            <g id="10">
              <title>Group</title>
              <g id="11">
                <title>Group</title>
                <g id="12">
                  <title>Group</title>
                  <g id="13">
                    <title>Group</title>
                    <g id="14">
                      <title>Group</title>
                      <g id="15">
                        <title>Group</title>
                        <g id="16">
                          <title>Group</title>
                          <g id="17">
                            <title>Group</title>
                            <defs>
                              <title>Shape 2</title>
                              <g id="18">
                                <defs>
                                  <path id="19" d="M128.977,38.1008 C115.265,38.1008,104.154,49.0416,104.154,62.5443 C104.154,76.047,115.265,86.9878,128.977,86.9878 C142.688,86.9878,153.799,76.047,153.799,62.5443 C153.799,49.0416,142.688,38.1008,128.977,38.1008 z M128.977,84.9548 C116.434,84.9548,106.219,74.907,106.219,62.5443 C106.219,50.1933,116.422,40.1338,128.977,40.1338 C141.519,40.1338,151.734,50.1815,151.734,62.5443 C151.734,74.8953,141.519,84.9548,128.977,84.9548 z"/>
                                </defs>
                                <use xlink:href="#19" style="fill:#000000;fill-opacity:1;fill-rule:nonzero;opacity:1;stroke:none;"/>
                              </g>
                            </defs>
                            <use xlink:href="#18"/>
                          </g>
                        </g>
                      </g>
                    </g>
                  </g>
                </g>
                <g id="20">
                  <title>Group</title>
                  <g id="21">
                    <title>Group</title>
                    <g id="22">
                      <title>Group</title>
                      <g id="23">
                        <title>Group</title>
                        <g id="24">
                          <title>Group</title>
                          <g id="25">
                            <title>Group</title>
                            <defs>
                              <title>Shape 3</title>
                              <g id="26">
                                <defs>
                                  <path id="27" d="M128.977,38.1008 C115.265,38.1008,104.154,49.0416,104.154,62.5443 C104.154,76.047,115.265,86.9878,128.977,86.9878 C142.688,86.9878,153.799,76.047,153.799,62.5443 C153.799,49.0416,142.688,38.1008,128.977,38.1008 z M128.977,84.9548 C116.434,84.9548,106.219,74.907,106.219,62.5443 C106.219,50.1933,116.422,40.1338,128.977,40.1338 C141.519,40.1338,151.734,50.1815,151.734,62.5443 C151.734,74.8953,141.519,84.9548,128.977,84.9548 z"/>
                                </defs>
                                <use xlink:href="#27" style="fill:#ffffff;fill-opacity:1;fill-rule:nonzero;opacity:1;stroke:none;"/>
                              </g>
                            </defs>
                            <use xlink:href="#26"/>
                          </g>
                        </g>
                      </g>
                    </g>
                  </g>
                </g>
              </g>
              <g id="28">
                <title>Group</title>
                <g id="29">
                  <title>Group</title>
                  <g id="30">
                    <title>Group</title>
                    <g id="31">
                      <title>Group</title>
                      <g id="32">
                        <title>Group</title>
                        <g id="33">
                          <title>Group</title>
                          <g id="34">
                            <title>Group</title>
                            <defs>
                              <title>Shape 4</title>
                              <g id="35">
                                <defs>
                                  <path id="36" d="M128.976,42.2161 C117.573,42.2161,108.333,51.3146,108.333,62.5436 C108.333,73.7727,117.573,82.8711,128.976,82.8711 C140.379,82.8711,149.618,73.7727,149.618,62.5436 C149.618,51.3146,140.379,42.2161,128.976,42.2161 z M128.976,81.1805 C118.546,81.1805,110.05,72.8247,110.05,62.5436 C110.05,52.2724,118.536,43.9068,128.976,43.9068 C139.406,43.9068,147.901,52.2626,147.901,62.5436 C147.901,72.8149,139.406,81.1805,128.976,81.1805 z"/>
                                </defs>
                                <use xlink:href="#36" style="fill:#000000;fill-opacity:1;fill-rule:nonzero;opacity:1;stroke:none;"/>
                              </g>
                            </defs>
                            <use xlink:href="#35"/>
                          </g>
                        </g>
                      </g>
                    </g>
                  </g>
                </g>
                <g id="37">
                  <title>Group</title>
                  <g id="38">
                    <title>Group</title>
                    <g id="39">
                      <title>Group</title>
                      <g id="40">
                        <title>Group</title>
                        <g id="41">
                          <title>Group</title>
                          <g id="42">
                            <title>Group</title>
                            <defs>
                              <title>Shape 5</title>
                              <g id="43">
                                <defs>
                                  <path id="44" d="M128.976,42.2161 C117.573,42.2161,108.333,51.3146,108.333,62.5436 C108.333,73.7727,117.573,82.8711,128.976,82.8711 C140.379,82.8711,149.618,73.7727,149.618,62.5436 C149.618,51.3146,140.379,42.2161,128.976,42.2161 z M128.976,81.1805 C118.546,81.1805,110.05,72.8247,110.05,62.5436 C110.05,52.2724,118.536,43.9068,128.976,43.9068 C139.406,43.9068,147.901,52.2626,147.901,62.5436 C147.901,72.8149,139.406,81.1805,128.976,81.1805 z"/>
                                </defs>
                                <use xlink:href="#44" style="fill:#ff7bac;fill-opacity:1;fill-rule:nonzero;opacity:1;stroke:none;"/>
                              </g>
                            </defs>
                            <use xlink:href="#43"/>
                          </g>
                        </g>
                      </g>
                    </g>
                  </g>
                </g>
              </g>
              <g id="45">
                <title>Group</title>
                <g id="46">
                  <title>Group</title>
                  <g id="47">
                    <title>Group</title>
                    <g id="48">
                      <title>Group</title>
                      <g id="49">
                        <title>Group</title>
                        <g id="50">
                          <title>Group</title>
                          <g id="51">
                            <title>Group</title>
                            <defs>
                              <title>Shape 6</title>
                              <g id="52">
                                <defs>
                                  <path id="53" d="M140.772,57.6463 C140.772,57.6413,140.772,57.6362,140.772,57.6312 C140.772,56.7215,140.023,55.984,139.1,55.984 C138.495,55.984,137.965,56.3002,137.671,56.774 C137.671,56.774,131.519,56.774,131.519,56.774 C131.519,56.774,131.519,50.7879,131.519,50.7879 C131.519,50.7879,131.519,50.7879,131.52,50.7879 C132.001,50.4986,132.322,49.9768,132.322,49.3811 C132.322,48.4763,131.581,47.7421,130.664,47.7342 C130.656,46.8313,129.91,46.1018,128.992,46.1018 C128.073,46.1018,127.327,46.8313,127.319,47.7342 C127.314,47.7341,127.309,47.734,127.304,47.734 C126.38,47.734,125.631,48.4714,125.631,49.3811 C125.631,49.9768,125.952,50.4986,126.433,50.7879 C126.434,50.7879,126.434,50.7879,126.434,50.7879 C126.434,52.7832,126.434,54.7786,126.434,56.774 C126.434,56.774,120.282,56.774,120.282,56.774 C120.282,56.7854,120.282,56.7968,120.282,56.8081 C119.988,56.3344,119.458,56.0182,118.853,56.0182 C117.935,56.0182,117.189,56.7477,117.181,57.6505 C116.264,57.6585,115.523,58.3927,115.523,59.2975 C115.523,60.2022,116.264,60.9365,117.181,60.9445 C117.181,60.9495,117.181,60.9545,117.181,60.9596 C117.181,61.8693,117.93,62.6067,118.853,62.6067 C119.458,62.6067,119.988,62.2905,120.282,61.8168 C120.282,61.8168,126.434,61.8168,126.434,61.8168 C126.434,66.255,126.434,70.6931,126.434,75.1312 C125.953,75.4206,125.632,75.9423,125.632,76.538 C125.632,77.4428,126.373,78.177,127.29,78.185 C127.298,79.0879,128.044,79.8174,128.962,79.8174 C129.881,79.8174,130.627,79.0879,130.635,78.185 C130.64,78.185,130.645,78.1852,130.65,78.1852 C131.574,78.1852,132.323,77.4478,132.323,76.538 C132.323,75.9424,132.002,75.4206,131.521,75.1312 C131.52,75.1312,131.519,75.1312,131.519,75.1312 C131.519,70.6931,131.519,66.255,131.519,61.8168 C133.569,61.8168,135.62,61.8168,137.671,61.8168 C137.671,61.8054,137.671,61.794,137.671,61.7826 C137.965,62.2563,138.495,62.5726,139.1,62.5726 C140.018,62.5726,140.764,61.8431,140.772,60.9403 C141.689,60.9323,142.43,60.198,142.43,59.2933 C142.43,58.3885,141.689,57.6543,140.772,57.6463 z"/>
                                </defs>
                                <use xlink:href="#53" style="fill:#000000;fill-opacity:1;fill-rule:nonzero;opacity:1;stroke:none;"/>
                              </g>
                            </defs>
                            <use xlink:href="#52"/>
                          </g>
                        </g>
                      </g>
                    </g>
                  </g>
                </g>
                <g id="54">
                  <title>Group</title>
                  <g id="55">
                    <title>Group</title>
                    <g id="56">
                      <title>Group</title>
                      <g id="57">
                        <title>Group</title>
                        <g id="58">
                          <title>Group</title>
                          <g id="59">
                            <title>Group</title>
                            <defs>
                              <title>Shape 7</title>
                              <g id="60">
                                <defs>
                                  <path id="61" d="M140.772,57.6463 C140.772,57.6413,140.772,57.6362,140.772,57.6312 C140.772,56.7215,140.023,55.984,139.1,55.984 C138.495,55.984,137.965,56.3002,137.671,56.774 C137.671,56.774,131.519,56.774,131.519,56.774 C131.519,56.774,131.519,50.7879,131.519,50.7879 C131.519,50.7879,131.519,50.7879,131.52,50.7879 C132.001,50.4986,132.322,49.9768,132.322,49.3811 C132.322,48.4763,131.581,47.7421,130.664,47.7342 C130.656,46.8313,129.91,46.1018,128.992,46.1018 C128.073,46.1018,127.327,46.8313,127.319,47.7342 C127.314,47.7341,127.309,47.734,127.304,47.734 C126.38,47.734,125.631,48.4714,125.631,49.3811 C125.631,49.9768,125.952,50.4986,126.433,50.7879 C126.434,50.7879,126.434,50.7879,126.434,50.7879 C126.434,52.7832,126.434,54.7786,126.434,56.774 C126.434,56.774,120.282,56.774,120.282,56.774 C120.282,56.7854,120.282,56.7968,120.282,56.8081 C119.988,56.3344,119.458,56.0182,118.853,56.0182 C117.935,56.0182,117.189,56.7477,117.181,57.6505 C116.264,57.6585,115.523,58.3927,115.523,59.2975 C115.523,60.2022,116.264,60.9365,117.181,60.9445 C117.181,60.9495,117.181,60.9545,117.181,60.9596 C117.181,61.8693,117.93,62.6067,118.853,62.6067 C119.458,62.6067,119.988,62.2905,120.282,61.8168 C120.282,61.8168,126.434,61.8168,126.434,61.8168 C126.434,66.255,126.434,70.6931,126.434,75.1312 C125.953,75.4206,125.632,75.9423,125.632,76.538 C125.632,77.4428,126.373,78.177,127.29,78.185 C127.298,79.0879,128.044,79.8174,128.962,79.8174 C129.881,79.8174,130.627,79.0879,130.635,78.185 C130.64,78.185,130.645,78.1852,130.65,78.1852 C131.574,78.1852,132.323,77.4478,132.323,76.538 C132.323,75.9424,132.002,75.4206,131.521,75.1312 C131.52,75.1312,131.519,75.1312,131.519,75.1312 C131.519,70.6931,131.519,66.255,131.519,61.8168 C133.569,61.8168,135.62,61.8168,137.671,61.8168 C137.671,61.8054,137.671,61.794,137.671,61.7826 C137.965,62.2563,138.495,62.5726,139.1,62.5726 C140.018,62.5726,140.764,61.8431,140.772,60.9403 C141.689,60.9323,142.43,60.198,142.43,59.2933 C142.43,58.3885,141.689,57.6543,140.772,57.6463 z"/>
                                </defs>
                                <use xlink:href="#61" style="fill:#ffffff;fill-opacity:1;fill-rule:nonzero;opacity:1;stroke:none;"/>
                              </g>
                            </defs>
                            <use xlink:href="#60"/>
                          </g>
                        </g>
                      </g>
                    </g>
                  </g>
                </g>
              </g>
            </g>
          </g>
        </g>
        <clipPath id="63">
          <use xlink:href="#62"/>
          <path id="62" d="M96.2169,30.2843 C96.2169,30.2843,161.736,30.2843,161.736,30.2843 C161.736,30.2843,161.736,94.8043,161.736,94.8043 C161.736,94.8043,96.2169,94.8043,96.2169,94.8043 C96.2169,94.8043,96.2169,30.2843,96.2169,30.2843 z"/>
        </clipPath>
        <g id="64" style="clip-path:url(#63);"/>
        <g id="65">
          <title>Group</title>
          <g id="66">
            <title>Group</title>
            <g id="67">
              <title>Group</title>
              <defs>
                <title>Shape 9</title>
                <g id="68">
                  <defs>
                    <path id="69" d="M111.239,94.8043 C111.239,94.8043,114.458,94.8043,114.458,94.8043 C114.458,94.8043,114.435,96.1372,114.435,96.1372 C114.435,96.1372,113.312,96.1372,113.312,96.1372 C113.312,96.1372,113.172,104.156,113.172,104.156 C113.172,104.156,114.295,104.156,114.295,104.156 C114.295,104.156,114.272,105.489,114.272,105.489 C114.272,105.489,110.775,105.489,110.775,105.489 C110.775,105.489,110.798,104.156,110.798,104.156 C110.798,104.156,111.896,104.156,111.896,104.156 C111.896,104.156,112.036,96.1372,112.036,96.1372 C112.036,96.1372,108.676,105.602,108.676,105.602 C108.676,105.602,108.398,105.602,108.398,105.602 C108.398,105.602,105.394,96.1372,105.394,96.1372 C105.394,96.1372,105.254,104.156,105.254,104.156 C105.254,104.156,106.277,104.156,106.277,104.156 C106.277,104.156,106.254,105.489,106.254,105.489 C106.254,105.489,102.955,105.489,102.955,105.489 C102.955,105.489,102.978,104.156,102.978,104.156 C102.978,104.156,104.107,104.156,104.107,104.156 C104.107,104.156,104.247,96.1372,104.247,96.1372 C104.247,96.1372,103.118,96.1372,103.118,96.1372 C103.118,96.1372,103.141,94.8043,103.141,94.8043 C103.141,94.8043,106.33,94.8043,106.33,94.8043 C106.33,94.8043,108.65,102.121,108.65,102.121 C108.65,102.121,111.239,94.8043,111.239,94.8043 z M120.257,96.1372 C120.257,96.1372,120.117,104.156,120.117,104.156 C120.117,104.156,121.129,104.156,121.129,104.156 C121.129,104.156,121.106,105.489,121.106,105.489 C121.106,105.489,117.683,105.489,117.683,105.489 C117.683,105.489,117.706,104.156,117.706,104.156 C117.706,104.156,118.711,104.156,118.711,104.156 C118.711,104.156,118.851,96.1372,118.851,96.1372 C118.851,96.1372,117.846,96.1372,117.846,96.1372 C117.846,96.1372,117.869,94.8043,117.869,94.8043 C117.869,94.8043,121.292,94.8043,121.292,94.8043 C121.292,94.8043,121.269,96.1372,121.269,96.1372 C121.269,96.1372,120.257,96.1372,120.257,96.1372 z M127.098,96.1372 C127.098,96.1372,126.958,104.156,126.958,104.156 C126.958,104.156,130.01,104.156,130.01,104.156 C130.01,104.156,130.068,100.845,130.068,100.845 C130.068,100.845,131.221,100.845,131.221,100.845 C131.221,100.845,131.14,105.489,131.14,105.489 C131.14,105.489,124.332,105.489,124.332,105.489 C124.332,105.489,124.355,104.156,124.355,104.156 C124.355,104.156,125.552,104.156,125.552,104.156 C125.552,104.156,125.692,96.1372,125.692,96.1372 C125.692,96.1372,124.495,96.1372,124.495,96.1372 C124.495,96.1372,124.518,94.8043,124.518,94.8043 C124.518,94.8043,128.317,94.8043,128.317,94.8043 C128.317,94.8043,128.294,96.1372,128.294,96.1372 C128.294,96.1372,127.098,96.1372,127.098,96.1372 z M137.132,96.1372 C137.132,96.1372,136.993,104.156,136.993,104.156 C136.993,104.156,138.066,104.156,138.066,104.156 C138.066,104.156,138.042,105.489,138.042,105.489 C138.042,105.489,134.404,105.489,134.404,105.489 C134.404,105.489,134.427,104.156,134.427,104.156 C134.427,104.156,135.586,104.156,135.586,104.156 C135.586,104.156,135.726,96.1372,135.726,96.1372 C135.726,96.1372,134.567,96.1372,134.567,96.1372 C134.567,96.1372,134.59,94.8043,134.59,94.8043 C134.59,94.8043,138.352,94.8043,138.352,94.8043 C138.352,94.8043,138.329,96.1372,138.329,96.1372 C138.329,96.1372,137.132,96.1372,137.132,96.1372 z M141.752,96.1372 C141.752,96.1372,138.807,99.8523,138.807,99.8523 C138.807,99.8523,141.692,104.156,141.692,104.156 C141.692,104.156,142.685,104.156,142.685,104.156 C142.685,104.156,142.662,105.489,142.662,105.489 C142.662,105.489,138.887,105.489,138.887,105.489 C138.887,105.489,138.91,104.156,138.91,104.156 C138.91,104.156,139.934,104.156,139.934,104.156 C139.934,104.156,137.215,99.9019,137.215,99.9019 C137.215,99.9019,140.161,96.1372,140.161,96.1372 C140.161,96.1372,139.087,96.1372,139.087,96.1372 C139.087,96.1372,139.111,94.8043,139.111,94.8043 C139.111,94.8043,142.762,94.8043,142.762,94.8043 C142.762,94.8043,142.738,96.1372,142.738,96.1372 C142.738,96.1372,141.752,96.1372,141.752,96.1372 z M148.506,96.1372 C148.506,96.1372,150.483,99.434,150.483,99.434 C150.483,99.434,152.422,96.1372,152.422,96.1372 C152.422,96.1372,151.262,96.1372,151.262,96.1372 C151.262,96.1372,151.286,94.8043,151.286,94.8043 C151.286,94.8043,154.998,94.8043,154.998,94.8043 C154.998,94.8043,154.975,96.1372,154.975,96.1372 C154.975,96.1372,153.76,96.1372,153.76,96.1372 C153.76,96.1372,151.079,100.625,151.079,100.625 C151.079,100.625,151.017,104.156,151.017,104.156 C151.017,104.156,152.294,104.156,152.294,104.156 C152.294,104.156,152.271,105.489,152.271,105.489 C152.271,105.489,148.342,105.489,148.342,105.489 C148.342,105.489,148.366,104.156,148.366,104.156 C148.366,104.156,149.618,104.156,149.618,104.156 C149.618,104.156,149.679,100.625,149.679,100.625 C149.679,100.625,146.988,96.1372,146.988,96.1372 C146.988,96.1372,145.854,96.1372,145.854,96.1372 C145.854,96.1372,145.877,94.8043,145.877,94.8043 C145.877,94.8043,149.694,94.8043,149.694,94.8043 C149.694,94.8043,149.671,96.1372,149.671,96.1372 C149.671,96.1372,148.506,96.1372,148.506,96.1372 z"/>
                  </defs>
                  <use xlink:href="#69" style="fill:#ff79ac;fill-opacity:1;fill-rule:nonzero;opacity:1;stroke:none;"/>
                </g>
              </defs>
              <use xlink:href="#68"/>
            </g>
            <g id="70">
              <title>Group</title>
              <defs>
                <title>Shape 10</title>
                <g id="71">
                  <defs>
                    <path id="72" d="M111.239,94.8043 C111.239,94.8043,114.458,94.8043,114.458,94.8043 C114.458,94.8043,114.435,96.1372,114.435,96.1372 C114.435,96.1372,113.312,96.1372,113.312,96.1372 C113.312,96.1372,113.172,104.156,113.172,104.156 C113.172,104.156,114.295,104.156,114.295,104.156 C114.295,104.156,114.272,105.489,114.272,105.489 C114.272,105.489,110.775,105.489,110.775,105.489 C110.775,105.489,110.798,104.156,110.798,104.156 C110.798,104.156,111.896,104.156,111.896,104.156 C111.896,104.156,112.036,96.1372,112.036,96.1372 C112.036,96.1372,108.676,105.602,108.676,105.602 C108.676,105.602,108.398,105.602,108.398,105.602 C108.398,105.602,105.394,96.1372,105.394,96.1372 C105.394,96.1372,105.254,104.156,105.254,104.156 C105.254,104.156,106.277,104.156,106.277,104.156 C106.277,104.156,106.254,105.489,106.254,105.489 C106.254,105.489,102.955,105.489,102.955,105.489 C102.955,105.489,102.978,104.156,102.978,104.156 C102.978,104.156,104.107,104.156,104.107,104.156 C104.107,104.156,104.247,96.1372,104.247,96.1372 C104.247,96.1372,103.118,96.1372,103.118,96.1372 C103.118,96.1372,103.141,94.8043,103.141,94.8043 C103.141,94.8043,106.33,94.8043,106.33,94.8043 C106.33,94.8043,108.65,102.121,108.65,102.121 C108.65,102.121,111.239,94.8043,111.239,94.8043 z M120.257,96.1372 C120.257,96.1372,120.117,104.156,120.117,104.156 C120.117,104.156,121.129,104.156,121.129,104.156 C121.129,104.156,121.106,105.489,121.106,105.489 C121.106,105.489,117.683,105.489,117.683,105.489 C117.683,105.489,117.706,104.156,117.706,104.156 C117.706,104.156,118.711,104.156,118.711,104.156 C118.711,104.156,118.851,96.1372,118.851,96.1372 C118.851,96.1372,117.846,96.1372,117.846,96.1372 C117.846,96.1372,117.869,94.8043,117.869,94.8043 C117.869,94.8043,121.292,94.8043,121.292,94.8043 C121.292,94.8043,121.269,96.1372,121.269,96.1372 C121.269,96.1372,120.257,96.1372,120.257,96.1372 z M127.098,96.1372 C127.098,96.1372,126.958,104.156,126.958,104.156 C126.958,104.156,130.01,104.156,130.01,104.156 C130.01,104.156,130.068,100.845,130.068,100.845 C130.068,100.845,131.221,100.845,131.221,100.845 C131.221,100.845,131.14,105.489,131.14,105.489 C131.14,105.489,124.332,105.489,124.332,105.489 C124.332,105.489,124.355,104.156,124.355,104.156 C124.355,104.156,125.552,104.156,125.552,104.156 C125.552,104.156,125.692,96.1372,125.692,96.1372 C125.692,96.1372,124.495,96.1372,124.495,96.1372 C124.495,96.1372,124.518,94.8043,124.518,94.8043 C124.518,94.8043,128.317,94.8043,128.317,94.8043 C128.317,94.8043,128.294,96.1372,128.294,96.1372 C128.294,96.1372,127.098,96.1372,127.098,96.1372 z M137.132,96.1372 C137.132,96.1372,136.993,104.156,136.993,104.156 C136.993,104.156,138.066,104.156,138.066,104.156 C138.066,104.156,138.042,105.489,138.042,105.489 C138.042,105.489,134.404,105.489,134.404,105.489 C134.404,105.489,134.427,104.156,134.427,104.156 C134.427,104.156,135.586,104.156,135.586,104.156 C135.586,104.156,135.726,96.1372,135.726,96.1372 C135.726,96.1372,134.567,96.1372,134.567,96.1372 C134.567,96.1372,134.59,94.8043,134.59,94.8043 C134.59,94.8043,138.352,94.8043,138.352,94.8043 C138.352,94.8043,138.329,96.1372,138.329,96.1372 C138.329,96.1372,137.132,96.1372,137.132,96.1372 z M141.752,96.1372 C141.752,96.1372,138.807,99.8523,138.807,99.8523 C138.807,99.8523,141.692,104.156,141.692,104.156 C141.692,104.156,142.685,104.156,142.685,104.156 C142.685,104.156,142.662,105.489,142.662,105.489 C142.662,105.489,138.887,105.489,138.887,105.489 C138.887,105.489,138.91,104.156,138.91,104.156 C138.91,104.156,139.934,104.156,139.934,104.156 C139.934,104.156,137.215,99.9019,137.215,99.9019 C137.215,99.9019,140.161,96.1372,140.161,96.1372 C140.161,96.1372,139.087,96.1372,139.087,96.1372 C139.087,96.1372,139.111,94.8043,139.111,94.8043 C139.111,94.8043,142.762,94.8043,142.762,94.8043 C142.762,94.8043,142.738,96.1372,142.738,96.1372 C142.738,96.1372,141.752,96.1372,141.752,96.1372 z M148.506,96.1372 C148.506,96.1372,150.483,99.434,150.483,99.434 C150.483,99.434,152.422,96.1372,152.422,96.1372 C152.422,96.1372,151.262,96.1372,151.262,96.1372 C151.262,96.1372,151.286,94.8043,151.286,94.8043 C151.286,94.8043,154.998,94.8043,154.998,94.8043 C154.998,94.8043,154.975,96.1372,154.975,96.1372 C154.975,96.1372,153.76,96.1372,153.76,96.1372 C153.76,96.1372,151.079,100.625,151.079,100.625 C151.079,100.625,151.017,104.156,151.017,104.156 C151.017,104.156,152.294,104.156,152.294,104.156 C152.294,104.156,152.271,105.489,152.271,105.489 C152.271,105.489,148.342,105.489,148.342,105.489 C148.342,105.489,148.366,104.156,148.366,104.156 C148.366,104.156,149.618,104.156,149.618,104.156 C149.618,104.156,149.679,100.625,149.679,100.625 C149.679,100.625,146.988,96.1372,146.988,96.1372 C146.988,96.1372,145.854,96.1372,145.854,96.1372 C145.854,96.1372,145.877,94.8043,145.877,94.8043 C145.877,94.8043,149.694,94.8043,149.694,94.8043 C149.694,94.8043,149.671,96.1372,149.671,96.1372 C149.671,96.1372,148.506,96.1372,148.506,96.1372 z"/>
                  </defs>
                  <use xlink:href="#72" style="fill:#ff7bac;fill-opacity:1;fill-rule:nonzero;opacity:1;stroke:none;"/>
                </g>
              </defs>
              <use xlink:href="#71"/>
            </g>
          </g>
        </g>
        <g id="73">
          <title>Group</title>
          <g id="74">
            <title>Group</title>
            <g id="75">
              <title>Group</title>
              <defs>
                <title>Shape 11</title>
                <g id="76">
                  <defs>
                    <path id="77" d="M104.522,113.801 C104.522,113.801,104.522,112.574,104.522,112.574 C104.522,112.574,105.725,112.574,105.725,112.574 C105.725,112.574,105.725,116.146,105.725,116.146 C105.725,116.146,104.497,116.146,104.497,116.146 C104.188,115.431,103.763,114.874,103.225,114.474 C102.686,114.075,102.094,113.875,101.451,113.875 C100.829,113.875,100.273,114.069,99.7842,114.456 C99.2952,114.843,98.9142,115.361,98.6402,116.009 C98.3668,116.657,98.23,117.354,98.23,118.098 C98.23,118.867,98.3732,119.577,98.6592,120.228 C98.9452,120.879,99.3392,121.399,99.8402,121.788 C100.342,122.178,100.9,122.373,101.514,122.373 C102.27,122.373,102.938,122.1,103.519,121.555 C104.1,121.011,104.524,120.238,104.791,119.237 C104.791,119.237,105.994,119.991,105.994,119.991 C105.669,121.234,105.093,122.196,104.268,122.879 C103.443,123.562,102.475,123.903,101.363,123.903 C100.448,123.903,99.6362,123.646,98.9262,123.131 C98.2154,122.615,97.6629,121.923,97.2682,121.052 C96.8732,120.182,96.6758,119.227,96.6758,118.187 C96.6758,117.058,96.8774,116.052,97.2806,115.169 C97.6838,114.287,98.2405,113.603,98.9512,113.117 C99.6612,112.632,100.473,112.389,101.388,112.389 C102.003,112.389,102.569,112.51,103.087,112.751 C103.605,112.993,104.083,113.343,104.522,113.801 z M119.069,115.495 C119.069,116.21,118.898,116.81,118.555,117.296 C118.213,117.781,117.734,118.115,117.12,118.298 C117.12,118.298,118.787,122.328,118.787,122.328 C118.787,122.328,119.94,122.328,119.94,122.328 C119.94,122.328,119.94,123.718,119.94,123.718 C119.94,123.718,117.822,123.718,117.822,123.718 C117.822,123.718,115.735,118.527,115.735,118.527 C115.735,118.527,114.413,118.527,114.413,118.527 C114.413,118.527,114.413,122.328,114.413,122.328 C114.413,122.328,115.616,122.328,115.616,122.328 C115.616,122.328,115.616,123.718,115.616,123.718 C115.616,123.718,111.706,123.718,111.706,123.718 C111.706,123.718,111.706,122.328,111.706,122.328 C111.706,122.328,112.984,122.328,112.984,122.328 C112.984,122.328,112.984,113.964,112.984,113.964 C112.984,113.964,111.706,113.964,111.706,113.964 C111.706,113.964,111.706,112.574,111.706,112.574 C111.706,112.574,115.629,112.574,115.629,112.574 C116.845,112.574,117.722,112.808,118.261,113.276 C118.8,113.745,119.069,114.484,119.069,115.495 z M117.597,115.465 C117.597,114.948,117.459,114.568,117.183,114.326 C116.907,114.085,116.471,113.964,115.873,113.964 C115.873,113.964,114.413,113.964,114.413,113.964 C114.413,113.964,114.413,117.129,114.413,117.129 C114.413,117.129,115.785,117.129,115.785,117.129 C116.4,117.129,116.855,117.004,117.152,116.752 C117.448,116.501,117.597,116.072,117.597,115.465 z M135.44,118.113 C135.44,119.247,135.228,120.255,134.804,121.138 C134.38,122.02,133.794,122.702,133.047,123.182 C132.299,123.663,131.448,123.903,130.496,123.903 C129.556,123.903,128.72,123.653,127.989,123.153 C127.258,122.652,126.689,121.96,126.282,121.075 C125.874,120.19,125.67,119.193,125.67,118.083 C125.67,116.984,125.878,116.003,126.294,115.14 C126.71,114.277,127.283,113.603,128.014,113.117 C128.745,112.632,129.577,112.389,130.508,112.389 C131.478,112.389,132.336,112.639,133.084,113.139 C133.832,113.64,134.412,114.324,134.823,115.192 C135.235,116.059,135.44,117.033,135.44,118.113 z M130.552,122.417 C131.2,122.417,131.779,122.217,132.288,121.818 C132.798,121.419,133.192,120.889,133.47,120.228 C133.747,119.567,133.886,118.862,133.886,118.113 C133.886,117.349,133.739,116.64,133.444,115.987 C133.15,115.333,132.744,114.818,132.226,114.441 C131.708,114.064,131.123,113.875,130.471,113.875 C129.832,113.875,129.266,114.059,128.773,114.426 C128.28,114.794,127.898,115.3,127.629,115.946 C127.359,116.592,127.225,117.309,127.225,118.098 C127.225,118.936,127.359,119.683,127.629,120.339 C127.898,120.995,128.286,121.505,128.791,121.87 C129.297,122.234,129.884,122.417,130.552,122.417 z M146.353,113.269 C146.353,113.269,146.353,112.507,146.353,112.507 C146.353,112.507,147.506,112.507,147.506,112.507 C147.506,112.507,147.506,115.887,147.506,115.887 C147.506,115.887,146.353,115.887,146.353,115.887 C146.353,115.887,146.353,115.118,146.353,115.118 C145.864,114.25,145.196,113.816,144.348,113.816 C143.83,113.816,143.433,113.939,143.157,114.186 C142.881,114.432,142.744,114.787,142.744,115.251 C142.744,115.695,142.874,116.032,143.135,116.264 C143.396,116.496,143.796,116.693,144.335,116.856 C144.335,116.856,145.445,117.203,145.445,117.203 C146.151,117.425,146.693,117.718,147.071,118.083 C147.449,118.448,147.695,118.835,147.81,119.244 C147.925,119.654,147.983,120.11,147.983,120.612 C147.983,121.623,147.715,122.424,147.18,123.016 C146.646,123.608,145.929,123.903,145.031,123.903 C144.174,123.903,143.395,123.534,142.693,122.794 C142.693,122.794,142.693,123.718,142.693,123.718 C142.693,123.718,141.515,123.718,141.515,123.718 C141.515,123.718,141.515,119.658,141.515,119.658 C141.515,119.658,142.693,119.658,142.693,119.658 C142.693,119.658,142.693,120.642,142.693,120.642 C143.257,121.865,143.993,122.476,144.899,122.476 C145.43,122.476,145.841,122.315,146.134,121.992 C146.426,121.669,146.573,121.214,146.573,120.627 C146.573,119.829,146.096,119.274,145.144,118.963 C145.144,118.963,143.966,118.571,143.966,118.571 C143.117,118.285,142.491,117.898,142.086,117.41 C141.68,116.922,141.478,116.279,141.478,115.48 C141.478,114.499,141.723,113.738,142.214,113.199 C142.705,112.659,143.383,112.389,144.248,112.389 C145,112.389,145.701,112.682,146.353,113.269 z M158.695,113.269 C158.695,113.269,158.695,112.507,158.695,112.507 C158.695,112.507,159.848,112.507,159.848,112.507 C159.848,112.507,159.848,115.887,159.848,115.887 C159.848,115.887,158.695,115.887,158.695,115.887 C158.695,115.887,158.695,115.118,158.695,115.118 C158.206,114.25,157.538,113.816,156.689,113.816 C156.171,113.816,155.774,113.939,155.499,114.186 C155.223,114.432,155.085,114.787,155.085,115.251 C155.085,115.695,155.216,116.032,155.477,116.264 C155.738,116.496,156.138,116.693,156.677,116.856 C156.677,116.856,157.786,117.203,157.786,117.203 C158.492,117.425,159.034,117.718,159.412,118.083 C159.79,118.448,160.037,118.835,160.152,119.244 C160.267,119.654,160.324,120.11,160.324,120.612 C160.324,121.623,160.057,122.424,159.522,123.016 C158.987,123.608,158.271,123.903,157.373,123.903 C156.516,123.903,155.737,123.534,155.035,122.794 C155.035,122.794,155.035,123.719,155.035,123.719 C155.035,123.719,153.857,123.719,153.857,123.719 C153.857,123.719,153.857,119.658,153.857,119.658 C153.857,119.658,155.035,119.658,155.035,119.658 C155.035,119.658,155.035,120.642,155.035,120.642 C155.599,121.865,156.334,122.476,157.241,122.476 C157.771,122.476,158.183,122.315,158.475,121.992 C158.768,121.669,158.914,121.214,158.914,120.627 C158.914,119.829,158.438,119.274,157.485,118.963 C157.485,118.963,156.307,118.571,156.307,118.571 C155.459,118.285,154.832,117.898,154.427,117.41 C154.022,116.922,153.819,116.279,153.819,115.48 C153.819,114.499,154.065,113.738,154.556,113.199 C155.046,112.659,155.724,112.389,156.589,112.389 C157.341,112.389,158.043,112.682,158.695,113.269 z"/>
                  </defs>
                  <use xlink:href="#77" style="fill:#ffffff;fill-opacity:1;fill-rule:nonzero;opacity:1;stroke:none;"/>
                </g>
              </defs>
              <use xlink:href="#76"/>
            </g>
          </g>
        </g>
      </g>
    </g>
    <clipPath id="79">
      <use xlink:href="#78"/>
      <path id="78" d="M0,0 C0,0,257,0,257,0 C257,0,257,158,257,158 C257,158,0,158,0,158 C0,158,0,0,0,0 z"/>
    </clipPath>
    <g id="80" style="clip-path:url(#79);"/>
  </g>
</svg>
