<?xml version="1.0" encoding="utf-8"?>
<svg x="0pt" y="0pt" width="257pt" height="158pt" viewBox="0 0 257 158" xmlns="http://www.w3.org/2000/svg" xmlns:xlink="http://www.w3.org/1999/xlink">
  <g id="1">
    <title>Group</title>
    <clipPath id="3">
      <use xlink:href="#2"/>
      <path id="2" d="M96.2169,30.2843 C96.2169,30.2843,161.736,30.2843,161.736,30.2843 C161.736,30.2843,161.736,94.8043,161.736,94.8043 C161.736,94.8043,96.2169,94.8043,96.2169,94.8043 C96.2169,94.8043,96.2169,30.2843,96.2169,30.2843 z"/>
    </clipPath>
    <g id="4" style="clip-path:url(#3);">
      <title>Clipping Group</title>
      <g id="5">
        <title>Group</title>
        <g id="6">
          <title>Group</title>
          <g id="7">
            <title>Group</title>
            <g id="8">
              <title>Group</title>
              <g id="9">
                <title>Group</title>
                <g id="10">
                  <title>Group</title>
                  <defs>
                    <title>Shape 147</title>
                    <g id="11">
                      <defs>
                        <path id="12" d="M128.977,38.1008 C115.265,38.1008,104.154,49.0416,104.154,62.5443 C104.154,76.047,115.265,86.9878,128.977,86.9878 C142.688,86.9878,153.799,76.047,153.799,62.5443 C153.799,49.0416,142.688,38.1008,128.977,38.1008 z M128.977,84.9548 C116.434,84.9548,106.219,74.907,106.219,62.5443 C106.219,50.1933,116.422,40.1338,128.977,40.1338 C141.519,40.1338,151.734,50.1815,151.734,62.5443 C151.734,74.8953,141.519,84.9548,128.977,84.9548 z"/>
                      </defs>
                      <use xlink:href="#12" style="fill:#000000;fill-opacity:1;fill-rule:nonzero;opacity:1;stroke:none;"/>
                    </g>
                  </defs>
                  <use xlink:href="#11"/>
                </g>
              </g>
            </g>
            <g id="13">
              <title>Group</title>
              <g id="14">
                <title>Group</title>
                <g id="15">
                  <title>Group</title>
                  <defs>
                    <title>Shape 148</title>
                    <g id="16">
                      <defs>
                        <path id="17" d="M128.977,38.1008 C115.265,38.1008,104.154,49.0416,104.154,62.5443 C104.154,76.047,115.265,86.9878,128.977,86.9878 C142.688,86.9878,153.799,76.047,153.799,62.5443 C153.799,49.0416,142.688,38.1008,128.977,38.1008 z M128.977,84.9548 C116.434,84.9548,106.219,74.907,106.219,62.5443 C106.219,50.1933,116.422,40.1338,128.977,40.1338 C141.519,40.1338,151.734,50.1815,151.734,62.5443 C151.734,74.8953,141.519,84.9548,128.977,84.9548 z"/>
                      </defs>
                      <use xlink:href="#17" style="fill:#ffffff;fill-opacity:1;fill-rule:nonzero;opacity:1;stroke:none;"/>
                    </g>
                  </defs>
                  <use xlink:href="#16"/>
                </g>
              </g>
            </g>
          </g>
          <g id="18">
            <title>Group</title>
            <g id="19">
              <title>Group</title>
              <g id="20">
                <title>Group</title>
                <g id="21">
                  <title>Group</title>
                  <defs>
                    <title>Shape 149</title>
                    <g id="22">
                      <defs>
                        <path id="23" d="M128.976,42.2161 C117.573,42.2161,108.333,51.3146,108.333,62.5436 C108.333,73.7727,117.573,82.8711,128.976,82.8711 C140.379,82.8711,149.618,73.7727,149.618,62.5436 C149.618,51.3146,140.379,42.2161,128.976,42.2161 z M128.976,81.1805 C118.546,81.1805,110.05,72.8247,110.05,62.5436 C110.05,52.2724,118.536,43.9068,128.976,43.9068 C139.406,43.9068,147.901,52.2626,147.901,62.5436 C147.901,72.8149,139.406,81.1805,128.976,81.1805 z"/>
                      </defs>
                      <use xlink:href="#23" style="fill:#000000;fill-opacity:1;fill-rule:nonzero;opacity:1;stroke:none;"/>
                    </g>
                  </defs>
                  <use xlink:href="#22"/>
                </g>
              </g>
            </g>
            <g id="24">
              <title>Group</title>
              <g id="25">
                <title>Group</title>
                <g id="26">
                  <title>Group</title>
                  <defs>
                    <title>Shape 150</title>
                    <g id="27">
                      <defs>
                        <path id="28" d="M128.976,42.2161 C117.573,42.2161,108.333,51.3146,108.333,62.5436 C108.333,73.7727,117.573,82.8711,128.976,82.8711 C140.379,82.8711,149.618,73.7727,149.618,62.5436 C149.618,51.3146,140.379,42.2161,128.976,42.2161 z M128.976,81.1805 C118.546,81.1805,110.05,72.8247,110.05,62.5436 C110.05,52.2724,118.536,43.9068,128.976,43.9068 C139.406,43.9068,147.901,52.2626,147.901,62.5436 C147.901,72.8149,139.406,81.1805,128.976,81.1805 z"/>
                      </defs>
                      <use xlink:href="#28" style="fill:#8cc63f;fill-opacity:1;fill-rule:nonzero;opacity:1;stroke:none;"/>
                    </g>
                  </defs>
                  <use xlink:href="#27"/>
                </g>
              </g>
            </g>
          </g>
          <g id="29">
            <title>Group</title>
            <g id="30">
              <title>Group</title>
              <g id="31">
                <title>Group</title>
                <g id="32">
                  <title>Group</title>
                  <defs>
                    <title>Shape 151</title>
                    <g id="33">
                      <defs>
                        <path id="34" d="M140.772,57.6463 C140.772,57.6413,140.772,57.6362,140.772,57.6312 C140.772,56.7215,140.023,55.984,139.1,55.984 C138.495,55.984,137.965,56.3002,137.671,56.774 C137.671,56.774,131.519,56.774,131.519,56.774 C131.519,56.774,131.519,50.7879,131.519,50.7879 C131.519,50.7879,131.519,50.7879,131.52,50.7879 C132.001,50.4986,132.322,49.9768,132.322,49.3811 C132.322,48.4763,131.581,47.7421,130.664,47.7342 C130.656,46.8313,129.91,46.1018,128.992,46.1018 C128.073,46.1018,127.327,46.8313,127.319,47.7342 C127.314,47.7341,127.309,47.734,127.304,47.734 C126.38,47.734,125.631,48.4714,125.631,49.3811 C125.631,49.9768,125.952,50.4986,126.433,50.7879 C126.434,50.7879,126.434,50.7879,126.434,50.7879 C126.434,52.7832,126.434,54.7786,126.434,56.774 C126.434,56.774,120.282,56.774,120.282,56.774 C120.282,56.7854,120.282,56.7968,120.282,56.8081 C119.988,56.3344,119.458,56.0182,118.853,56.0182 C117.935,56.0182,117.189,56.7477,117.181,57.6505 C116.264,57.6585,115.523,58.3927,115.523,59.2975 C115.523,60.2022,116.264,60.9365,117.181,60.9445 C117.181,60.9495,117.181,60.9545,117.181,60.9596 C117.181,61.8693,117.93,62.6067,118.853,62.6067 C119.458,62.6067,119.988,62.2905,120.282,61.8168 C120.282,61.8168,126.434,61.8168,126.434,61.8168 C126.434,66.255,126.434,70.6931,126.434,75.1312 C125.953,75.4206,125.632,75.9423,125.632,76.538 C125.632,77.4428,126.373,78.177,127.29,78.185 C127.298,79.0879,128.044,79.8174,128.962,79.8174 C129.881,79.8174,130.627,79.0879,130.635,78.185 C130.64,78.185,130.645,78.1852,130.65,78.1852 C131.574,78.1852,132.323,77.4478,132.323,76.538 C132.323,75.9424,132.002,75.4206,131.521,75.1312 C131.52,75.1312,131.519,75.1312,131.519,75.1312 C131.519,70.6931,131.519,66.255,131.519,61.8168 C133.569,61.8168,135.62,61.8168,137.671,61.8168 C137.671,61.8054,137.671,61.794,137.671,61.7826 C137.965,62.2563,138.495,62.5726,139.1,62.5726 C140.018,62.5726,140.764,61.8431,140.772,60.9403 C141.689,60.9323,142.43,60.198,142.43,59.2933 C142.43,58.3885,141.689,57.6543,140.772,57.6463 z"/>
                      </defs>
                      <use xlink:href="#34" style="fill:#000000;fill-opacity:1;fill-rule:nonzero;opacity:1;stroke:none;"/>
                    </g>
                  </defs>
                  <use xlink:href="#33"/>
                </g>
              </g>
            </g>
            <g id="35">
              <title>Group</title>
              <g id="36">
                <title>Group</title>
                <g id="37">
                  <title>Group</title>
                  <defs>
                    <title>Shape 152</title>
                    <g id="38">
                      <defs>
                        <path id="39" d="M140.772,57.6463 C140.772,57.6413,140.772,57.6362,140.772,57.6312 C140.772,56.7215,140.023,55.984,139.1,55.984 C138.495,55.984,137.965,56.3002,137.671,56.774 C137.671,56.774,131.519,56.774,131.519,56.774 C131.519,56.774,131.519,50.7879,131.519,50.7879 C131.519,50.7879,131.519,50.7879,131.52,50.7879 C132.001,50.4986,132.322,49.9768,132.322,49.3811 C132.322,48.4763,131.581,47.7421,130.664,47.7342 C130.656,46.8313,129.91,46.1018,128.992,46.1018 C128.073,46.1018,127.327,46.8313,127.319,47.7342 C127.314,47.7341,127.309,47.734,127.304,47.734 C126.38,47.734,125.631,48.4714,125.631,49.3811 C125.631,49.9768,125.952,50.4986,126.433,50.7879 C126.434,50.7879,126.434,50.7879,126.434,50.7879 C126.434,52.7832,126.434,54.7786,126.434,56.774 C126.434,56.774,120.282,56.774,120.282,56.774 C120.282,56.7854,120.282,56.7968,120.282,56.8081 C119.988,56.3344,119.458,56.0182,118.853,56.0182 C117.935,56.0182,117.189,56.7477,117.181,57.6505 C116.264,57.6585,115.523,58.3927,115.523,59.2975 C115.523,60.2022,116.264,60.9365,117.181,60.9445 C117.181,60.9495,117.181,60.9545,117.181,60.9596 C117.181,61.8693,117.93,62.6067,118.853,62.6067 C119.458,62.6067,119.988,62.2905,120.282,61.8168 C120.282,61.8168,126.434,61.8168,126.434,61.8168 C126.434,66.255,126.434,70.6931,126.434,75.1312 C125.953,75.4206,125.632,75.9423,125.632,76.538 C125.632,77.4428,126.373,78.177,127.29,78.185 C127.298,79.0879,128.044,79.8174,128.962,79.8174 C129.881,79.8174,130.627,79.0879,130.635,78.185 C130.64,78.185,130.645,78.1852,130.65,78.1852 C131.574,78.1852,132.323,77.4478,132.323,76.538 C132.323,75.9424,132.002,75.4206,131.521,75.1312 C131.52,75.1312,131.519,75.1312,131.519,75.1312 C131.519,70.6931,131.519,66.255,131.519,61.8168 C133.569,61.8168,135.62,61.8168,137.671,61.8168 C137.671,61.8054,137.671,61.794,137.671,61.7826 C137.965,62.2563,138.495,62.5726,139.1,62.5726 C140.018,62.5726,140.764,61.8431,140.772,60.9403 C141.689,60.9323,142.43,60.198,142.43,59.2933 C142.43,58.3885,141.689,57.6543,140.772,57.6463 z"/>
                      </defs>
                      <use xlink:href="#39" style="fill:#ffffff;fill-opacity:1;fill-rule:nonzero;opacity:1;stroke:none;"/>
                    </g>
                  </defs>
                  <use xlink:href="#38"/>
                </g>
              </g>
            </g>
          </g>
        </g>
      </g>
    </g>
    <clipPath id="41">
      <use xlink:href="#40"/>
      <path id="40" d="M96.2169,30.2843 C96.2169,30.2843,161.736,30.2843,161.736,30.2843 C161.736,30.2843,161.736,94.8043,161.736,94.8043 C161.736,94.8043,96.2169,94.8043,96.2169,94.8043 C96.2169,94.8043,96.2169,30.2843,96.2169,30.2843 z"/>
    </clipPath>
    <g id="42" style="clip-path:url(#41);"/>
    <defs>
      <title>Text</title>
      <g id="43">
        <defs>
          <path id="44" d="M78.4791,98.0206 C78.4791,98.0206,81.6984,98.0206,81.6984,98.0206 C81.6984,98.0206,81.6751,99.3535,81.6751,99.3535 C81.6751,99.3535,80.5527,99.3535,80.5527,99.3535 C80.5527,99.3535,80.4127,107.372,80.4127,107.372 C80.4127,107.372,81.5352,107.372,81.5352,107.372 C81.5352,107.372,81.5119,108.705,81.5119,108.705 C81.5119,108.705,78.0151,108.705,78.0151,108.705 C78.0151,108.705,78.0384,107.372,78.0384,107.372 C78.0384,107.372,79.1361,107.372,79.1361,107.372 C79.1361,107.372,79.2761,99.3535,79.2761,99.3535 C79.2761,99.3535,75.9163,108.818,75.9163,108.818 C75.9163,108.818,75.6388,108.818,75.6388,108.818 C75.6388,108.818,72.6341,99.3535,72.6341,99.3535 C72.6341,99.3535,72.4941,107.372,72.4941,107.372 C72.4941,107.372,73.5179,107.372,73.5179,107.372 C73.5179,107.372,73.4946,108.705,73.4946,108.705 C73.4946,108.705,70.1952,108.705,70.1952,108.705 C70.1952,108.705,70.2184,107.372,70.2184,107.372 C70.2184,107.372,71.347,107.372,71.347,107.372 C71.347,107.372,71.487,99.3535,71.487,99.3535 C71.487,99.3535,70.3584,99.3535,70.3584,99.3535 C70.3584,99.3535,70.3817,98.0206,70.3817,98.0206 C70.3817,98.0206,73.5701,98.0206,73.5701,98.0206 C73.5701,98.0206,75.8907,105.337,75.8907,105.337 C75.8907,105.337,78.4791,98.0206,78.4791,98.0206 z M87.4978,99.3535 C87.4978,99.3535,87.3578,107.372,87.3578,107.372 C87.3578,107.372,88.3692,107.372,88.3692,107.372 C88.3692,107.372,88.346,108.705,88.346,108.705 C88.346,108.705,84.9232,108.705,84.9232,108.705 C84.9232,108.705,84.9465,107.372,84.9465,107.372 C84.9465,107.372,85.9517,107.372,85.9517,107.372 C85.9517,107.372,86.0917,99.3535,86.0917,99.3535 C86.0917,99.3535,85.0864,99.3535,85.0864,99.3535 C85.0864,99.3535,85.1097,98.0206,85.1097,98.0206 C85.1097,98.0206,88.5325,98.0206,88.5325,98.0206 C88.5325,98.0206,88.5092,99.3535,88.5092,99.3535 C88.5092,99.3535,87.4978,99.3535,87.4978,99.3535 z M94.338,99.3535 C94.338,99.3535,94.1981,107.372,94.1981,107.372 C94.1981,107.372,97.2508,107.372,97.2508,107.372 C97.2508,107.372,97.3086,104.061,97.3086,104.061 C97.3086,104.061,98.4619,104.061,98.4619,104.061 C98.4619,104.061,98.3808,108.705,98.3808,108.705 C98.3808,108.705,91.5723,108.705,91.5723,108.705 C91.5723,108.705,91.5955,107.372,91.5955,107.372 C91.5955,107.372,92.7919,107.372,92.7919,107.372 C92.7919,107.372,92.9319,99.3535,92.9319,99.3535 C92.9319,99.3535,91.7355,99.3535,91.7355,99.3535 C91.7355,99.3535,91.7588,98.0206,91.7588,98.0206 C91.7588,98.0206,95.5577,98.0206,95.5577,98.0206 C95.5577,98.0206,95.5345,99.3535,95.5345,99.3535 C95.5345,99.3535,94.338,99.3535,94.338,99.3535 z M104.373,99.3535 C104.373,99.3535,104.233,107.372,104.233,107.372 C104.233,107.372,105.306,107.372,105.306,107.372 C105.306,107.372,105.283,108.705,105.283,108.705 C105.283,108.705,101.644,108.705,101.644,108.705 C101.644,108.705,101.667,107.372,101.667,107.372 C101.667,107.372,102.827,107.372,102.827,107.372 C102.827,107.372,102.967,99.3535,102.967,99.3535 C102.967,99.3535,101.807,99.3535,101.807,99.3535 C101.807,99.3535,101.831,98.0206,101.831,98.0206 C101.831,98.0206,105.593,98.0206,105.593,98.0206 C105.593,98.0206,105.569,99.3535,105.569,99.3535 C105.569,99.3535,104.373,99.3535,104.373,99.3535 z M108.992,99.3535 C108.992,99.3535,106.047,103.069,106.047,103.069 C106.047,103.069,108.932,107.372,108.932,107.372 C108.932,107.372,109.925,107.372,109.925,107.372 C109.925,107.372,109.902,108.705,109.902,108.705 C109.902,108.705,106.128,108.705,106.128,108.705 C106.128,108.705,106.151,107.372,106.151,107.372 C106.151,107.372,107.175,107.372,107.175,107.372 C107.175,107.372,104.455,103.118,104.455,103.118 C104.455,103.118,107.401,99.3535,107.401,99.3535 C107.401,99.3535,106.328,99.3535,106.328,99.3535 C106.328,99.3535,106.351,98.0206,106.351,98.0206 C106.351,98.0206,110.002,98.0206,110.002,98.0206 C110.002,98.0206,109.979,99.3535,109.979,99.3535 C109.979,99.3535,108.992,99.3535,108.992,99.3535 z M115.746,99.3535 C115.746,99.3535,117.724,102.65,117.724,102.65 C117.724,102.65,119.662,99.3535,119.662,99.3535 C119.662,99.3535,118.503,99.3535,118.503,99.3535 C118.503,99.3535,118.526,98.0206,118.526,98.0206 C118.526,98.0206,122.239,98.0206,122.239,98.0206 C122.239,98.0206,122.215,99.3535,122.215,99.3535 C122.215,99.3535,121,99.3535,121,99.3535 C121,99.3535,118.319,103.841,118.319,103.841 C118.319,103.841,118.258,107.372,118.258,107.372 C118.258,107.372,119.534,107.372,119.534,107.372 C119.534,107.372,119.511,108.705,119.511,108.705 C119.511,108.705,115.583,108.705,115.583,108.705 C115.583,108.705,115.606,107.372,115.606,107.372 C115.606,107.372,116.858,107.372,116.858,107.372 C116.858,107.372,116.92,103.841,116.92,103.841 C116.92,103.841,114.229,99.3535,114.229,99.3535 C114.229,99.3535,113.094,99.3535,113.094,99.3535 C113.094,99.3535,113.117,98.0206,113.117,98.0206 C113.117,98.0206,116.935,98.0206,116.935,98.0206 C116.935,98.0206,116.912,99.3535,116.912,99.3535 C116.912,99.3535,115.746,99.3535,115.746,99.3535 z"/>
        </defs>
        <use xlink:href="#44" style="fill:#8cc53f;fill-opacity:1;fill-rule:nonzero;opacity:1;stroke:none;"/>
        <use xlink:href="#44" style="fill:#8cc63f;fill-opacity:1;fill-rule:nonzero;opacity:1;stroke:none;"/>
      </g>
    </defs>
    <use xlink:href="#43"/>
    <defs>
      <title>Text</title>
      <g id="45">
        <defs>
          <path id="46" d="M136.823,98.7164 C136.823,98.7164,136.823,97.4888,136.823,97.4888 C136.823,97.4888,138.026,97.4888,138.026,97.4888 C138.026,97.4888,138.026,101.061,138.026,101.061 C138.026,101.061,136.797,101.061,136.797,101.061 C136.488,100.346,136.064,99.7887,135.525,99.3894 C134.986,98.99,134.395,98.7904,133.752,98.7904 C133.129,98.7904,132.574,98.9839,132.085,99.3709 C131.596,99.7579,131.215,100.276,130.941,100.924 C130.667,101.572,130.531,102.269,130.531,103.013 C130.531,103.782,130.674,104.492,130.96,105.143 C131.246,105.794,131.64,106.314,132.141,106.703 C132.643,107.093,133.2,107.288,133.814,107.288 C134.571,107.288,135.239,107.015,135.82,106.47 C136.401,105.926,136.825,105.153,137.092,104.152 C137.092,104.152,138.295,104.906,138.295,104.906 C137.969,106.149,137.394,107.111,136.569,107.794 C135.744,108.477,134.775,108.818,133.664,108.818 C132.749,108.818,131.937,108.561,131.226,108.046 C130.516,107.53,129.964,106.838,129.569,105.968 C129.174,105.097,128.977,104.142,128.977,103.102 C128.977,101.973,129.178,100.967,129.581,100.085 C129.984,99.202,130.541,98.518,131.251,98.0323 C131.962,97.5467,132.774,97.3039,133.689,97.3039 C134.303,97.3039,134.869,97.4247,135.387,97.6663 C135.906,97.9079,136.384,98.2579,136.823,98.7164 z M148.897,100.41 C148.897,101.125,148.725,101.725,148.383,102.211 C148.04,102.696,147.562,103.03,146.948,103.213 C146.948,103.213,148.615,107.243,148.615,107.243 C148.615,107.243,149.768,107.243,149.768,107.243 C149.768,107.243,149.768,108.634,149.768,108.634 C149.768,108.634,147.65,108.634,147.65,108.634 C147.65,108.634,145.563,103.442,145.563,103.442 C145.563,103.442,144.24,103.442,144.24,103.442 C144.24,103.442,144.24,107.243,144.24,107.243 C144.24,107.243,145.444,107.243,145.444,107.243 C145.444,107.243,145.444,108.634,145.444,108.634 C145.444,108.634,141.533,108.634,141.533,108.634 C141.533,108.634,141.533,107.243,141.533,107.243 C141.533,107.243,142.812,107.243,142.812,107.243 C142.812,107.243,142.812,98.8791,142.812,98.8791 C142.812,98.8791,141.533,98.8791,141.533,98.8791 C141.533,98.8791,141.533,97.4888,141.533,97.4888 C141.533,97.4888,145.456,97.4888,145.456,97.4888 C146.672,97.4888,147.549,97.723,148.088,98.1913 C148.627,98.6597,148.897,99.3993,148.897,100.41 z M147.424,100.38 C147.424,99.8627,147.286,99.4831,147.01,99.2415 C146.735,98.9999,146.298,98.8791,145.701,98.8791 C145.701,98.8791,144.24,98.8791,144.24,98.8791 C144.24,98.8791,144.24,102.044,144.24,102.044 C144.24,102.044,145.613,102.044,145.613,102.044 C146.227,102.044,146.682,101.919,146.979,101.667 C147.276,101.416,147.424,100.987,147.424,100.38 z M162.794,103.028 C162.794,104.162,162.582,105.17,162.158,106.053 C161.734,106.935,161.148,107.617,160.4,108.097 C159.653,108.578,158.802,108.818,157.85,108.818 C156.91,108.818,156.074,108.568,155.343,108.068 C154.612,107.567,154.043,106.875,153.635,105.99 C153.228,105.105,153.024,104.108,153.024,102.998 C153.024,101.899,153.232,100.918,153.648,100.055 C154.064,99.1922,154.637,98.518,155.368,98.0323 C156.099,97.5467,156.931,97.3039,157.862,97.3039 C158.832,97.3039,159.69,97.5541,160.438,98.0545 C161.186,98.555,161.766,99.239,162.177,100.107 C162.589,100.974,162.794,101.948,162.794,103.028 z M157.906,107.332 C158.554,107.332,159.133,107.132,159.642,106.733 C160.152,106.334,160.546,105.804,160.824,105.143 C161.101,104.482,161.24,103.777,161.24,103.028 C161.24,102.264,161.093,101.555,160.798,100.902 C160.504,100.248,160.098,99.7333,159.58,99.3561 C159.061,98.979,158.477,98.7904,157.825,98.7904 C157.186,98.7904,156.62,98.974,156.127,99.3413 C155.634,99.7086,155.252,100.215,154.983,100.861 C154.713,101.507,154.579,102.224,154.579,103.013 C154.579,103.851,154.713,104.598,154.983,105.254 C155.252,105.91,155.64,106.42,156.145,106.785 C156.651,107.15,157.238,107.332,157.906,107.332 z M171.234,98.184 C171.234,98.184,171.234,97.4222,171.234,97.4222 C171.234,97.4222,172.387,97.4222,172.387,97.4222 C172.387,97.4222,172.387,100.802,172.387,100.802 C172.387,100.802,171.234,100.802,171.234,100.802 C171.234,100.802,171.234,100.033,171.234,100.033 C170.745,99.1651,170.077,98.7312,169.228,98.7312 C168.71,98.7312,168.313,98.8545,168.038,99.101 C167.762,99.3475,167.624,99.7025,167.624,100.166 C167.624,100.61,167.755,100.947,168.016,101.179 C168.277,101.411,168.677,101.608,169.216,101.771 C169.216,101.771,170.325,102.118,170.325,102.118 C171.031,102.34,171.573,102.633,171.951,102.998 C172.329,103.363,172.576,103.75,172.691,104.159 C172.806,104.569,172.863,105.025,172.863,105.528 C172.863,106.538,172.596,107.339,172.061,107.931 C171.526,108.523,170.81,108.818,169.911,108.818 C169.055,108.818,168.276,108.449,167.574,107.709 C167.574,107.709,167.574,108.634,167.574,108.634 C167.574,108.634,166.396,108.634,166.396,108.634 C166.396,108.634,166.396,104.574,166.396,104.574 C166.396,104.574,167.574,104.574,167.574,104.574 C167.574,104.574,167.574,105.557,167.574,105.557 C168.138,106.78,168.873,107.391,169.78,107.391 C170.31,107.391,170.722,107.23,171.014,106.907 C171.307,106.584,171.453,106.129,171.453,105.542 C171.453,104.744,170.977,104.189,170.024,103.878 C170.024,103.878,168.846,103.486,168.846,103.486 C167.998,103.2,167.371,102.813,166.966,102.325 C166.561,101.837,166.358,101.194,166.358,100.395 C166.358,99.414,166.604,98.6536,167.095,98.1137 C167.585,97.5738,168.263,97.3039,169.128,97.3039 C169.88,97.3039,170.582,97.5973,171.234,98.184 z M181.102,98.184 C181.102,98.184,181.102,97.4222,181.102,97.4222 C181.102,97.4222,182.255,97.4222,182.255,97.4222 C182.255,97.4222,182.255,100.802,182.255,100.802 C182.255,100.802,181.102,100.802,181.102,100.802 C181.102,100.802,181.102,100.033,181.102,100.033 C180.613,99.1651,179.945,98.7312,179.097,98.7312 C178.579,98.7312,178.182,98.8545,177.906,99.101 C177.63,99.3475,177.492,99.7025,177.492,100.166 C177.492,100.61,177.623,100.947,177.884,101.179 C178.145,101.411,178.545,101.608,179.084,101.771 C179.084,101.771,180.193,102.118,180.193,102.118 C180.899,102.34,181.441,102.633,181.82,102.998 C182.198,103.363,182.444,103.75,182.559,104.159 C182.674,104.569,182.731,105.025,182.731,105.528 C182.731,106.538,182.464,107.339,181.929,107.931 C181.394,108.523,180.678,108.818,179.78,108.818 C178.923,108.818,178.144,108.449,177.442,107.709 C177.442,107.709,177.442,108.634,177.442,108.634 C177.442,108.634,176.264,108.634,176.264,108.634 C176.264,108.634,176.264,104.574,176.264,104.574 C176.264,104.574,177.442,104.574,177.442,104.574 C177.442,104.574,177.442,105.557,177.442,105.557 C178.006,106.78,178.742,107.391,179.648,107.391 C180.179,107.391,180.59,107.23,180.883,106.907 C181.175,106.584,181.321,106.129,181.321,105.542 C181.321,104.744,180.845,104.189,179.893,103.878 C179.893,103.878,178.714,103.486,178.714,103.486 C177.866,103.2,177.24,102.813,176.834,102.325 C176.429,101.837,176.226,101.194,176.226,100.395 C176.226,99.414,176.472,98.6536,176.963,98.1137 C177.454,97.5738,178.132,97.3039,178.996,97.3039 C179.748,97.3039,180.45,97.5973,181.102,98.184 z"/>
        </defs>
        <use xlink:href="#46" style="fill:#ffffff;fill-opacity:1;fill-rule:nonzero;opacity:1;stroke:none;"/>
      </g>
    </defs>
    <use xlink:href="#45"/>
  </g>
</svg>
