<?xml version="1.0" encoding="utf-8"?>
<svg x="0pt" y="0pt" width="257pt" height="158pt" viewBox="0 0 257 158" xmlns="http://www.w3.org/2000/svg" xmlns:xlink="http://www.w3.org/1999/xlink">
  <g id="1">
    <title>Group</title>
    <clipPath id="3">
      <use xlink:href="#2"/>
      <path id="2" d="M96.2169,30.2843 C96.2169,30.2843,161.736,30.2843,161.736,30.2843 C161.736,30.2843,161.736,94.8043,161.736,94.8043 C161.736,94.8043,96.2169,94.8043,96.2169,94.8043 C96.2169,94.8043,96.2169,30.2843,96.2169,30.2843 z"/>
    </clipPath>
    <g id="4" style="clip-path:url(#3);">
      <title>Clipping Group</title>
      <g id="5">
        <title>Group</title>
        <g id="6">
          <title>Group</title>
          <g id="7">
            <title>Group</title>
            <g id="8">
              <title>Group</title>
              <g id="9">
                <title>Group</title>
                <g id="10">
                  <title>Group</title>
                  <defs>
                    <title>Shape 147</title>
                    <g id="11">
                      <defs>
                        <path id="12" d="M128.977,38.1008 C115.265,38.1008,104.154,49.0416,104.154,62.5443 C104.154,76.047,115.265,86.9878,128.977,86.9878 C142.688,86.9878,153.799,76.047,153.799,62.5443 C153.799,49.0416,142.688,38.1008,128.977,38.1008 z M128.977,84.9548 C116.434,84.9548,106.219,74.907,106.219,62.5443 C106.219,50.1933,116.422,40.1338,128.977,40.1338 C141.519,40.1338,151.734,50.1815,151.734,62.5443 C151.734,74.8953,141.519,84.9548,128.977,84.9548 z"/>
                      </defs>
                      <use xlink:href="#12" style="fill:#000000;fill-opacity:1;fill-rule:nonzero;opacity:1;stroke:none;"/>
                    </g>
                  </defs>
                  <use xlink:href="#11"/>
                </g>
              </g>
            </g>
            <g id="13">
              <title>Group</title>
              <g id="14">
                <title>Group</title>
                <g id="15">
                  <title>Group</title>
                  <defs>
                    <title>Shape 148</title>
                    <g id="16">
                      <defs>
                        <path id="17" d="M128.977,38.1008 C115.265,38.1008,104.154,49.0416,104.154,62.5443 C104.154,76.047,115.265,86.9878,128.977,86.9878 C142.688,86.9878,153.799,76.047,153.799,62.5443 C153.799,49.0416,142.688,38.1008,128.977,38.1008 z M128.977,84.9548 C116.434,84.9548,106.219,74.907,106.219,62.5443 C106.219,50.1933,116.422,40.1338,128.977,40.1338 C141.519,40.1338,151.734,50.1815,151.734,62.5443 C151.734,74.8953,141.519,84.9548,128.977,84.9548 z"/>
                      </defs>
                      <use xlink:href="#17" style="fill:#ffffff;fill-opacity:1;fill-rule:nonzero;opacity:1;stroke:none;"/>
                    </g>
                  </defs>
                  <use xlink:href="#16"/>
                </g>
              </g>
            </g>
          </g>
          <g id="18">
            <title>Group</title>
            <g id="19">
              <title>Group</title>
              <g id="20">
                <title>Group</title>
                <g id="21">
                  <title>Group</title>
                  <defs>
                    <title>Shape 149</title>
                    <g id="22">
                      <defs>
                        <path id="23" d="M128.976,42.2161 C117.573,42.2161,108.333,51.3146,108.333,62.5436 C108.333,73.7727,117.573,82.8711,128.976,82.8711 C140.379,82.8711,149.618,73.7727,149.618,62.5436 C149.618,51.3146,140.379,42.2161,128.976,42.2161 z M128.976,81.1805 C118.546,81.1805,110.05,72.8247,110.05,62.5436 C110.05,52.2724,118.536,43.9068,128.976,43.9068 C139.406,43.9068,147.901,52.2626,147.901,62.5436 C147.901,72.8149,139.406,81.1805,128.976,81.1805 z"/>
                      </defs>
                      <use xlink:href="#23" style="fill:#000000;fill-opacity:1;fill-rule:nonzero;opacity:1;stroke:none;"/>
                    </g>
                  </defs>
                  <use xlink:href="#22"/>
                </g>
              </g>
            </g>
            <g id="24">
              <title>Group</title>
              <g id="25">
                <title>Group</title>
                <g id="26">
                  <title>Group</title>
                  <defs>
                    <title>Shape 150</title>
                    <g id="27">
                      <defs>
                        <path id="28" d="M128.976,42.2161 C117.573,42.2161,108.333,51.3146,108.333,62.5436 C108.333,73.7727,117.573,82.8711,128.976,82.8711 C140.379,82.8711,149.618,73.7727,149.618,62.5436 C149.618,51.3146,140.379,42.2161,128.976,42.2161 z M128.976,81.1805 C118.546,81.1805,110.05,72.8247,110.05,62.5436 C110.05,52.2724,118.536,43.9068,128.976,43.9068 C139.406,43.9068,147.901,52.2626,147.901,62.5436 C147.901,72.8149,139.406,81.1805,128.976,81.1805 z"/>
                      </defs>
                      <use xlink:href="#28" style="fill:#ff7bac;fill-opacity:1;fill-rule:nonzero;opacity:1;stroke:none;"/>
                    </g>
                  </defs>
                  <use xlink:href="#27"/>
                </g>
              </g>
            </g>
          </g>
          <g id="29">
            <title>Group</title>
            <g id="30">
              <title>Group</title>
              <g id="31">
                <title>Group</title>
                <g id="32">
                  <title>Group</title>
                  <defs>
                    <title>Shape 151</title>
                    <g id="33">
                      <defs>
                        <path id="34" d="M140.772,57.6463 C140.772,57.6413,140.772,57.6362,140.772,57.6312 C140.772,56.7215,140.023,55.984,139.1,55.984 C138.495,55.984,137.965,56.3002,137.671,56.774 C137.671,56.774,131.519,56.774,131.519,56.774 C131.519,56.774,131.519,50.7879,131.519,50.7879 C131.519,50.7879,131.519,50.7879,131.52,50.7879 C132.001,50.4986,132.322,49.9768,132.322,49.3811 C132.322,48.4763,131.581,47.7421,130.664,47.7342 C130.656,46.8313,129.91,46.1018,128.992,46.1018 C128.073,46.1018,127.327,46.8313,127.319,47.7342 C127.314,47.7341,127.309,47.734,127.304,47.734 C126.38,47.734,125.631,48.4714,125.631,49.3811 C125.631,49.9768,125.952,50.4986,126.433,50.7879 C126.434,50.7879,126.434,50.7879,126.434,50.7879 C126.434,52.7832,126.434,54.7786,126.434,56.774 C126.434,56.774,120.282,56.774,120.282,56.774 C120.282,56.7854,120.282,56.7968,120.282,56.8081 C119.988,56.3344,119.458,56.0182,118.853,56.0182 C117.935,56.0182,117.189,56.7477,117.181,57.6505 C116.264,57.6585,115.523,58.3927,115.523,59.2975 C115.523,60.2022,116.264,60.9365,117.181,60.9445 C117.181,60.9495,117.181,60.9545,117.181,60.9596 C117.181,61.8693,117.93,62.6067,118.853,62.6067 C119.458,62.6067,119.988,62.2905,120.282,61.8168 C120.282,61.8168,126.434,61.8168,126.434,61.8168 C126.434,66.255,126.434,70.6931,126.434,75.1312 C125.953,75.4206,125.632,75.9423,125.632,76.538 C125.632,77.4428,126.373,78.177,127.29,78.185 C127.298,79.0879,128.044,79.8174,128.962,79.8174 C129.881,79.8174,130.627,79.0879,130.635,78.185 C130.64,78.185,130.645,78.1852,130.65,78.1852 C131.574,78.1852,132.323,77.4478,132.323,76.538 C132.323,75.9424,132.002,75.4206,131.521,75.1312 C131.52,75.1312,131.519,75.1312,131.519,75.1312 C131.519,70.6931,131.519,66.255,131.519,61.8168 C133.569,61.8168,135.62,61.8168,137.671,61.8168 C137.671,61.8054,137.671,61.794,137.671,61.7826 C137.965,62.2563,138.495,62.5726,139.1,62.5726 C140.018,62.5726,140.764,61.8431,140.772,60.9403 C141.689,60.9323,142.43,60.198,142.43,59.2933 C142.43,58.3885,141.689,57.6543,140.772,57.6463 z"/>
                      </defs>
                      <use xlink:href="#34" style="fill:#000000;fill-opacity:1;fill-rule:nonzero;opacity:1;stroke:none;"/>
                    </g>
                  </defs>
                  <use xlink:href="#33"/>
                </g>
              </g>
            </g>
            <g id="35">
              <title>Group</title>
              <g id="36">
                <title>Group</title>
                <g id="37">
                  <title>Group</title>
                  <defs>
                    <title>Shape 152</title>
                    <g id="38">
                      <defs>
                        <path id="39" d="M140.772,57.6463 C140.772,57.6413,140.772,57.6362,140.772,57.6312 C140.772,56.7215,140.023,55.984,139.1,55.984 C138.495,55.984,137.965,56.3002,137.671,56.774 C137.671,56.774,131.519,56.774,131.519,56.774 C131.519,56.774,131.519,50.7879,131.519,50.7879 C131.519,50.7879,131.519,50.7879,131.52,50.7879 C132.001,50.4986,132.322,49.9768,132.322,49.3811 C132.322,48.4763,131.581,47.7421,130.664,47.7342 C130.656,46.8313,129.91,46.1018,128.992,46.1018 C128.073,46.1018,127.327,46.8313,127.319,47.7342 C127.314,47.7341,127.309,47.734,127.304,47.734 C126.38,47.734,125.631,48.4714,125.631,49.3811 C125.631,49.9768,125.952,50.4986,126.433,50.7879 C126.434,50.7879,126.434,50.7879,126.434,50.7879 C126.434,52.7832,126.434,54.7786,126.434,56.774 C126.434,56.774,120.282,56.774,120.282,56.774 C120.282,56.7854,120.282,56.7968,120.282,56.8081 C119.988,56.3344,119.458,56.0182,118.853,56.0182 C117.935,56.0182,117.189,56.7477,117.181,57.6505 C116.264,57.6585,115.523,58.3927,115.523,59.2975 C115.523,60.2022,116.264,60.9365,117.181,60.9445 C117.181,60.9495,117.181,60.9545,117.181,60.9596 C117.181,61.8693,117.93,62.6067,118.853,62.6067 C119.458,62.6067,119.988,62.2905,120.282,61.8168 C120.282,61.8168,126.434,61.8168,126.434,61.8168 C126.434,66.255,126.434,70.6931,126.434,75.1312 C125.953,75.4206,125.632,75.9423,125.632,76.538 C125.632,77.4428,126.373,78.177,127.29,78.185 C127.298,79.0879,128.044,79.8174,128.962,79.8174 C129.881,79.8174,130.627,79.0879,130.635,78.185 C130.64,78.185,130.645,78.1852,130.65,78.1852 C131.574,78.1852,132.323,77.4478,132.323,76.538 C132.323,75.9424,132.002,75.4206,131.521,75.1312 C131.52,75.1312,131.519,75.1312,131.519,75.1312 C131.519,70.6931,131.519,66.255,131.519,61.8168 C133.569,61.8168,135.62,61.8168,137.671,61.8168 C137.671,61.8054,137.671,61.794,137.671,61.7826 C137.965,62.2563,138.495,62.5726,139.1,62.5726 C140.018,62.5726,140.764,61.8431,140.772,60.9403 C141.689,60.9323,142.43,60.198,142.43,59.2933 C142.43,58.3885,141.689,57.6543,140.772,57.6463 z"/>
                      </defs>
                      <use xlink:href="#39" style="fill:#ffffff;fill-opacity:1;fill-rule:nonzero;opacity:1;stroke:none;"/>
                    </g>
                  </defs>
                  <use xlink:href="#38"/>
                </g>
              </g>
            </g>
          </g>
        </g>
      </g>
    </g>
    <clipPath id="41">
      <use xlink:href="#40"/>
      <path id="40" d="M96.2169,30.2843 C96.2169,30.2843,161.736,30.2843,161.736,30.2843 C161.736,30.2843,161.736,94.8043,161.736,94.8043 C161.736,94.8043,96.2169,94.8043,96.2169,94.8043 C96.2169,94.8043,96.2169,30.2843,96.2169,30.2843 z"/>
    </clipPath>
    <g id="42" style="clip-path:url(#41);"/>
    <defs>
      <title>Text</title>
      <g id="43">
        <defs>
          <path id="44" d="M111.239,94.8043 C111.239,94.8043,114.458,94.8043,114.458,94.8043 C114.458,94.8043,114.435,96.1372,114.435,96.1372 C114.435,96.1372,113.312,96.1372,113.312,96.1372 C113.312,96.1372,113.172,104.156,113.172,104.156 C113.172,104.156,114.295,104.156,114.295,104.156 C114.295,104.156,114.272,105.489,114.272,105.489 C114.272,105.489,110.775,105.489,110.775,105.489 C110.775,105.489,110.798,104.156,110.798,104.156 C110.798,104.156,111.896,104.156,111.896,104.156 C111.896,104.156,112.036,96.1372,112.036,96.1372 C112.036,96.1372,108.676,105.602,108.676,105.602 C108.676,105.602,108.398,105.602,108.398,105.602 C108.398,105.602,105.394,96.1372,105.394,96.1372 C105.394,96.1372,105.254,104.156,105.254,104.156 C105.254,104.156,106.277,104.156,106.277,104.156 C106.277,104.156,106.254,105.489,106.254,105.489 C106.254,105.489,102.955,105.489,102.955,105.489 C102.955,105.489,102.978,104.156,102.978,104.156 C102.978,104.156,104.107,104.156,104.107,104.156 C104.107,104.156,104.247,96.1372,104.247,96.1372 C104.247,96.1372,103.118,96.1372,103.118,96.1372 C103.118,96.1372,103.141,94.8043,103.141,94.8043 C103.141,94.8043,106.33,94.8043,106.33,94.8043 C106.33,94.8043,108.65,102.121,108.65,102.121 C108.65,102.121,111.239,94.8043,111.239,94.8043 z M120.257,96.1372 C120.257,96.1372,120.117,104.156,120.117,104.156 C120.117,104.156,121.129,104.156,121.129,104.156 C121.129,104.156,121.106,105.489,121.106,105.489 C121.106,105.489,117.683,105.489,117.683,105.489 C117.683,105.489,117.706,104.156,117.706,104.156 C117.706,104.156,118.711,104.156,118.711,104.156 C118.711,104.156,118.851,96.1372,118.851,96.1372 C118.851,96.1372,117.846,96.1372,117.846,96.1372 C117.846,96.1372,117.869,94.8043,117.869,94.8043 C117.869,94.8043,121.292,94.8043,121.292,94.8043 C121.292,94.8043,121.269,96.1372,121.269,96.1372 C121.269,96.1372,120.257,96.1372,120.257,96.1372 z M127.098,96.1372 C127.098,96.1372,126.958,104.156,126.958,104.156 C126.958,104.156,130.01,104.156,130.01,104.156 C130.01,104.156,130.068,100.845,130.068,100.845 C130.068,100.845,131.221,100.845,131.221,100.845 C131.221,100.845,131.14,105.489,131.14,105.489 C131.14,105.489,124.332,105.489,124.332,105.489 C124.332,105.489,124.355,104.156,124.355,104.156 C124.355,104.156,125.552,104.156,125.552,104.156 C125.552,104.156,125.692,96.1372,125.692,96.1372 C125.692,96.1372,124.495,96.1372,124.495,96.1372 C124.495,96.1372,124.518,94.8043,124.518,94.8043 C124.518,94.8043,128.317,94.8043,128.317,94.8043 C128.317,94.8043,128.294,96.1372,128.294,96.1372 C128.294,96.1372,127.098,96.1372,127.098,96.1372 z M137.132,96.1372 C137.132,96.1372,136.993,104.156,136.993,104.156 C136.993,104.156,138.066,104.156,138.066,104.156 C138.066,104.156,138.042,105.489,138.042,105.489 C138.042,105.489,134.404,105.489,134.404,105.489 C134.404,105.489,134.427,104.156,134.427,104.156 C134.427,104.156,135.586,104.156,135.586,104.156 C135.586,104.156,135.726,96.1372,135.726,96.1372 C135.726,96.1372,134.567,96.1372,134.567,96.1372 C134.567,96.1372,134.59,94.8043,134.59,94.8043 C134.59,94.8043,138.352,94.8043,138.352,94.8043 C138.352,94.8043,138.329,96.1372,138.329,96.1372 C138.329,96.1372,137.132,96.1372,137.132,96.1372 z M141.752,96.1372 C141.752,96.1372,138.807,99.8523,138.807,99.8523 C138.807,99.8523,141.692,104.156,141.692,104.156 C141.692,104.156,142.685,104.156,142.685,104.156 C142.685,104.156,142.662,105.489,142.662,105.489 C142.662,105.489,138.887,105.489,138.887,105.489 C138.887,105.489,138.91,104.156,138.91,104.156 C138.91,104.156,139.934,104.156,139.934,104.156 C139.934,104.156,137.215,99.9019,137.215,99.9019 C137.215,99.9019,140.161,96.1372,140.161,96.1372 C140.161,96.1372,139.087,96.1372,139.087,96.1372 C139.087,96.1372,139.111,94.8043,139.111,94.8043 C139.111,94.8043,142.762,94.8043,142.762,94.8043 C142.762,94.8043,142.738,96.1372,142.738,96.1372 C142.738,96.1372,141.752,96.1372,141.752,96.1372 z M148.506,96.1372 C148.506,96.1372,150.483,99.434,150.483,99.434 C150.483,99.434,152.422,96.1372,152.422,96.1372 C152.422,96.1372,151.262,96.1372,151.262,96.1372 C151.262,96.1372,151.286,94.8043,151.286,94.8043 C151.286,94.8043,154.998,94.8043,154.998,94.8043 C154.998,94.8043,154.975,96.1372,154.975,96.1372 C154.975,96.1372,153.76,96.1372,153.76,96.1372 C153.76,96.1372,151.079,100.625,151.079,100.625 C151.079,100.625,151.017,104.156,151.017,104.156 C151.017,104.156,152.294,104.156,152.294,104.156 C152.294,104.156,152.271,105.489,152.271,105.489 C152.271,105.489,148.342,105.489,148.342,105.489 C148.342,105.489,148.366,104.156,148.366,104.156 C148.366,104.156,149.618,104.156,149.618,104.156 C149.618,104.156,149.679,100.625,149.679,100.625 C149.679,100.625,146.988,96.1372,146.988,96.1372 C146.988,96.1372,145.854,96.1372,145.854,96.1372 C145.854,96.1372,145.877,94.8043,145.877,94.8043 C145.877,94.8043,149.694,94.8043,149.694,94.8043 C149.694,94.8043,149.671,96.1372,149.671,96.1372 C149.671,96.1372,148.506,96.1372,148.506,96.1372 z"/>
        </defs>
        <use xlink:href="#44" style="fill:#ff7aac;fill-opacity:1;fill-rule:nonzero;opacity:1;stroke:none;"/>
        <use xlink:href="#44" style="fill:#ff7bac;fill-opacity:1;fill-rule:nonzero;opacity:1;stroke:none;"/>
      </g>
    </defs>
    <use xlink:href="#43"/>
    <defs>
      <title>Text</title>
      <g id="45">
        <defs>
          <path id="46" d="M105.934,113.801 C105.934,113.801,105.934,112.574,105.934,112.574 C105.934,112.574,107.137,112.574,107.137,112.574 C107.137,112.574,107.137,116.146,107.137,116.146 C107.137,116.146,105.909,116.146,105.909,116.146 C105.6,115.431,105.175,114.874,104.637,114.474 C104.098,114.075,103.506,113.875,102.863,113.875 C102.241,113.875,101.685,114.069,101.196,114.456 C100.707,114.843,100.326,115.361,100.052,116.009 C99.7787,116.657,99.6419,117.354,99.6419,118.098 C99.6419,118.867,99.785,119.577,100.071,120.228 C100.357,120.879,100.751,121.399,101.252,121.788 C101.754,122.178,102.312,122.373,102.926,122.373 C103.682,122.373,104.35,122.1,104.931,121.555 C105.512,121.011,105.936,120.238,106.203,119.237 C106.203,119.237,107.406,119.991,107.406,119.991 C107.081,121.234,106.505,122.196,105.68,122.879 C104.855,123.562,103.887,123.903,102.775,123.903 C101.86,123.903,101.048,123.646,100.338,123.131 C99.6273,122.615,99.0748,121.923,98.68,121.052 C98.2851,120.182,98.0877,119.227,98.0877,118.187 C98.0877,117.058,98.2893,116.052,98.6925,115.169 C99.0957,114.287,99.6524,113.603,100.363,113.117 C101.073,112.632,101.885,112.389,102.8,112.389 C103.415,112.389,103.981,112.51,104.499,112.751 C105.017,112.993,105.495,113.343,105.934,113.801 z M120.481,115.495 C120.481,116.21,120.31,116.81,119.967,117.296 C119.625,117.781,119.146,118.115,118.532,118.298 C118.532,118.298,120.199,122.328,120.199,122.328 C120.199,122.328,121.352,122.328,121.352,122.328 C121.352,122.328,121.352,123.718,121.352,123.718 C121.352,123.718,119.234,123.718,119.234,123.718 C119.234,123.718,117.147,118.527,117.147,118.527 C117.147,118.527,115.825,118.527,115.825,118.527 C115.825,118.527,115.825,122.328,115.825,122.328 C115.825,122.328,117.028,122.328,117.028,122.328 C117.028,122.328,117.028,123.718,117.028,123.718 C117.028,123.718,113.118,123.718,113.118,123.718 C113.118,123.718,113.118,122.328,113.118,122.328 C113.118,122.328,114.396,122.328,114.396,122.328 C114.396,122.328,114.396,113.964,114.396,113.964 C114.396,113.964,113.118,113.964,113.118,113.964 C113.118,113.964,113.118,112.574,113.118,112.574 C113.118,112.574,117.041,112.574,117.041,112.574 C118.257,112.574,119.134,112.808,119.673,113.276 C120.212,113.745,120.481,114.484,120.481,115.495 z M119.009,115.465 C119.009,114.948,118.871,114.568,118.595,114.326 C118.319,114.085,117.883,113.964,117.285,113.964 C117.285,113.964,115.825,113.964,115.825,113.964 C115.825,113.964,115.825,117.129,115.825,117.129 C115.825,117.129,117.197,117.129,117.197,117.129 C117.812,117.129,118.267,117.004,118.564,116.752 C118.86,116.501,119.009,116.072,119.009,115.465 z M136.852,118.113 C136.852,119.247,136.64,120.255,136.216,121.138 C135.792,122.02,135.206,122.702,134.459,123.182 C133.711,123.663,132.86,123.903,131.908,123.903 C130.968,123.903,130.132,123.653,129.401,123.153 C128.67,122.652,128.101,121.96,127.694,121.075 C127.286,120.19,127.082,119.193,127.082,118.083 C127.082,116.984,127.29,116.003,127.706,115.14 C128.122,114.277,128.695,113.603,129.426,113.117 C130.157,112.632,130.989,112.389,131.92,112.389 C132.89,112.389,133.748,112.639,134.496,113.139 C135.244,113.64,135.824,114.324,136.235,115.192 C136.647,116.059,136.852,117.033,136.852,118.113 z M131.964,122.417 C132.612,122.417,133.191,122.217,133.7,121.818 C134.21,121.419,134.604,120.889,134.882,120.228 C135.159,119.567,135.298,118.862,135.298,118.113 C135.298,117.349,135.151,116.64,134.856,115.987 C134.562,115.333,134.156,114.818,133.638,114.441 C133.12,114.064,132.535,113.875,131.883,113.875 C131.244,113.875,130.678,114.059,130.185,114.426 C129.692,114.794,129.31,115.3,129.041,115.946 C128.771,116.592,128.637,117.309,128.637,118.098 C128.637,118.936,128.771,119.683,129.041,120.339 C129.31,120.995,129.698,121.505,130.203,121.87 C130.709,122.234,131.296,122.417,131.964,122.417 z M147.765,113.269 C147.765,113.269,147.765,112.507,147.765,112.507 C147.765,112.507,148.918,112.507,148.918,112.507 C148.918,112.507,148.918,115.887,148.918,115.887 C148.918,115.887,147.765,115.887,147.765,115.887 C147.765,115.887,147.765,115.118,147.765,115.118 C147.276,114.25,146.608,113.816,145.76,113.816 C145.242,113.816,144.845,113.939,144.569,114.186 C144.293,114.432,144.156,114.787,144.156,115.251 C144.156,115.695,144.286,116.032,144.547,116.264 C144.808,116.496,145.208,116.693,145.747,116.856 C145.747,116.856,146.857,117.203,146.857,117.203 C147.563,117.425,148.105,117.718,148.483,118.083 C148.861,118.448,149.107,118.835,149.222,119.244 C149.337,119.654,149.395,120.11,149.395,120.612 C149.395,121.623,149.127,122.424,148.592,123.016 C148.058,123.608,147.341,123.903,146.443,123.903 C145.586,123.903,144.807,123.534,144.105,122.794 C144.105,122.794,144.105,123.718,144.105,123.718 C144.105,123.718,142.927,123.718,142.927,123.718 C142.927,123.718,142.927,119.658,142.927,119.658 C142.927,119.658,144.105,119.658,144.105,119.658 C144.105,119.658,144.105,120.642,144.105,120.642 C144.669,121.865,145.405,122.476,146.311,122.476 C146.842,122.476,147.253,122.315,147.546,121.992 C147.838,121.669,147.985,121.214,147.985,120.627 C147.985,119.829,147.508,119.274,146.556,118.963 C146.556,118.963,145.378,118.571,145.378,118.571 C144.529,118.285,143.903,117.898,143.498,117.41 C143.092,116.922,142.89,116.279,142.89,115.48 C142.89,114.499,143.135,113.738,143.626,113.199 C144.117,112.659,144.795,112.389,145.66,112.389 C146.412,112.389,147.113,112.682,147.765,113.269 z M160.107,113.269 C160.107,113.269,160.107,112.507,160.107,112.507 C160.107,112.507,161.26,112.507,161.26,112.507 C161.26,112.507,161.26,115.887,161.26,115.887 C161.26,115.887,160.107,115.887,160.107,115.887 C160.107,115.887,160.107,115.118,160.107,115.118 C159.618,114.25,158.95,113.816,158.101,113.816 C157.583,113.816,157.186,113.939,156.911,114.186 C156.635,114.432,156.497,114.787,156.497,115.251 C156.497,115.695,156.628,116.032,156.889,116.264 C157.15,116.496,157.55,116.693,158.089,116.856 C158.089,116.856,159.198,117.203,159.198,117.203 C159.904,117.425,160.446,117.718,160.824,118.083 C161.202,118.448,161.449,118.835,161.564,119.244 C161.679,119.654,161.736,120.11,161.736,120.612 C161.736,121.623,161.469,122.424,160.934,123.016 C160.399,123.608,159.683,123.903,158.785,123.903 C157.928,123.903,157.149,123.534,156.447,122.794 C156.447,122.794,156.447,123.719,156.447,123.719 C156.447,123.719,155.269,123.719,155.269,123.719 C155.269,123.719,155.269,119.658,155.269,119.658 C155.269,119.658,156.447,119.658,156.447,119.658 C156.447,119.658,156.447,120.642,156.447,120.642 C157.011,121.865,157.746,122.476,158.653,122.476 C159.183,122.476,159.595,122.315,159.887,121.992 C160.18,121.669,160.326,121.214,160.326,120.627 C160.326,119.829,159.85,119.274,158.897,118.963 C158.897,118.963,157.719,118.571,157.719,118.571 C156.871,118.285,156.244,117.898,155.839,117.41 C155.434,116.922,155.231,116.279,155.231,115.48 C155.231,114.499,155.477,113.738,155.968,113.199 C156.458,112.659,157.136,112.389,158.001,112.389 C158.753,112.389,159.455,112.682,160.107,113.269 z"/>
        </defs>
        <use xlink:href="#46" style="fill:#ffffff;fill-opacity:1;fill-rule:nonzero;opacity:1;stroke:none;"/>
      </g>
    </defs>
    <use xlink:href="#45"/>
  </g>
</svg>
